<?xml version="1.0" encoding="UTF-8" standalone="no"?>
<!-- Created with Inkscape (http://www.inkscape.org/) -->
<svg width="31.581846mm" height="29.518829mm" viewBox="0 0 119.36446 111.56723" version="1.1" id="svg1" xml:space="preserve" inkscape:version="1.4.2 (f4327f4, 2025-05-13)" sodipodi:docname="Cooking.svg" xmlns:inkscape="http://www.inkscape.org/namespaces/inkscape" xmlns:sodipodi="http://sodipodi.sourceforge.net/DTD/sodipodi-0.dtd" xmlns="http://www.w3.org/2000/svg" xmlns:svg="http://www.w3.org/2000/svg"><sodipodi:namedview id="namedview1" pagecolor="#505050" bordercolor="#eeeeee" borderopacity="1" inkscape:showpageshadow="0" inkscape:pageopacity="0" inkscape:pagecheckerboard="0" inkscape:deskcolor="#505050" inkscape:document-units="mm" inkscape:zoom="5.780221" inkscape:cx="86.501882" inkscape:cy="46.970522" inkscape:window-width="2560" inkscape:window-height="1369" inkscape:window-x="2552" inkscape:window-y="-8" inkscape:window-maximized="1" inkscape:current-layer="layer1"/><defs id="defs1"><inkscape:path-effect effect="bspline" id="path-effect17" is_visible="true" lpeversion="1.3" weight="33.333333" steps="2" helper_size="0" apply_no_weight="true" apply_with_weight="true" only_selected="false" uniform="false"/><inkscape:path-effect effect="bspline" id="path-effect16" is_visible="true" lpeversion="1.3" weight="33.333333" steps="2" helper_size="0" apply_no_weight="true" apply_with_weight="true" only_selected="false" uniform="false"/><inkscape:path-effect effect="bspline" id="path-effect15" is_visible="true" lpeversion="1.3" weight="33.333333" steps="2" helper_size="0" apply_no_weight="true" apply_with_weight="true" only_selected="false" uniform="false"/><inkscape:path-effect effect="bspline" id="path-effect14" is_visible="true" lpeversion="1.3" weight="33.333333" steps="2" helper_size="0" apply_no_weight="true" apply_with_weight="true" only_selected="false" uniform="false"/><inkscape:path-effect effect="bspline" id="path-effect13" is_visible="true" lpeversion="1.3" weight="33.333333" steps="2" helper_size="0" apply_no_weight="true" apply_with_weight="true" only_selected="false" uniform="false"/><inkscape:path-effect effect="bspline" id="path-effect12" is_visible="true" lpeversion="1.3" weight="33.333333" steps="2" helper_size="0" apply_no_weight="true" apply_with_weight="true" only_selected="false" uniform="false"/><inkscape:path-effect effect="fillet_chamfer" id="path-effect11" is_visible="true" lpeversion="1" nodesatellites_param="F,0,0,1,0,1.2983296,0,1 @ F,0,1,1,0,1.2983296,0,1 @ F,0,1,1,0,1.2983296,0,1 @ F,0,1,1,0,1.2983296,0,1" radius="0" unit="px" method="auto" mode="F" chamfer_steps="1" flexible="false" use_knot_distance="true" apply_no_radius="true" apply_with_radius="true" only_selected="false" hide_knots="false"/><inkscape:path-effect effect="fillet_chamfer" id="path-effect10" is_visible="true" lpeversion="1" nodesatellites_param="F,0,0,1,0,1.4748336,0,1 @ F,0,1,1,0,1.4748336,0,1 @ F,0,1,1,0,1.4748336,0,1 @ F,0,1,1,0,1.4748336,0,1" radius="0" unit="px" method="auto" mode="F" chamfer_steps="1" flexible="false" use_knot_distance="true" apply_no_radius="true" apply_with_radius="true" only_selected="false" hide_knots="false"/><inkscape:path-effect effect="fillet_chamfer" id="path-effect9" is_visible="true" lpeversion="1" nodesatellites_param="F,0,1,1,0,1.1434177,0,1 @ F,0,0,1,0,1.1434177,0,1 @ F,0,1,1,0,1.1434177,0,1 @ F,0,1,1,0,1.1434177,0,1" radius="0" unit="px" method="auto" mode="F" chamfer_steps="1" flexible="false" use_knot_distance="true" apply_no_radius="true" apply_with_radius="true" only_selected="false" hide_knots="false"/><inkscape:path-effect effect="fillet_chamfer" id="path-effect6" is_visible="true" lpeversion="1" nodesatellites_param="F,0,0,1,0,5.3112383,0,1 @ F,0,0,1,0,4.4306891,0,1 @ F,0,0,1,0,4.9624877,0,1 @ F,0,0,1,0,5.1302095,0,1" radius="0" unit="px" method="auto" mode="F" chamfer_steps="1" flexible="false" use_knot_distance="true" apply_no_radius="true" apply_with_radius="true" only_selected="false" hide_knots="false"/><inkscape:path-effect effect="fillet_chamfer" id="path-effect5" is_visible="true" lpeversion="1" nodesatellites_param="F,0,0,1,0,0,0,1 @ F,0,0,1,0,0,0,1 @ F,0,0,1,0,0,0,1 @ F,0,0,1,0,0,0,1 @ F,0,0,1,0,0,0,1 @ F,0,0,1,0,0,0,1 @ F,0,0,1,0,0,0,1 @ F,0,0,1,0,0,0,1 @ F,0,0,1,0,2.1370099,0,1 @ F,0,0,1,0,0,0,1 @ F,0,0,1,0,0,0,1 @ F,0,0,1,0,0,0,1 @ F,0,0,1,0,0,0,1 @ F,0,0,1,0,2.1410089,0,1 @ F,0,0,1,0,0,0,1 @ F,0,0,1,0,0,0,1" radius="0" unit="px" method="auto" mode="F" chamfer_steps="1" flexible="false" use_knot_distance="true" apply_no_radius="true" apply_with_radius="true" only_selected="false" hide_knots="false"/><inkscape:path-effect effect="fillet_chamfer" id="path-effect4" is_visible="true" lpeversion="1" nodesatellites_param="F,0,0,1,0,0,0,1 @ F,0,0,1,0,0,0,1 @ F,0,0,1,0,2.5562817,0,1 @ F,0,0,1,0,2.2192563,0,1" radius="0" unit="px" method="auto" mode="F" chamfer_steps="1" flexible="false" use_knot_distance="true" apply_no_radius="true" apply_with_radius="true" only_selected="false" hide_knots="false"/><inkscape:path-effect effect="fillet_chamfer" id="path-effect3" is_visible="true" lpeversion="1" nodesatellites_param="F,0,0,1,0,2.7117078,0,1 @ F,0,0,1,0,2.5128279,0,1 @ F,0,0,1,0,1.7677816,0,1 @ F,0,0,1,0,1.9056209,0,1" radius="0.080609024" unit="mm" method="auto" mode="F" chamfer_steps="1" flexible="false" use_knot_distance="true" apply_no_radius="true" apply_with_radius="true" only_selected="false" hide_knots="false"/><inkscape:path-effect effect="bspline" id="path-effect2" is_visible="true" lpeversion="1.3" weight="33.333333" steps="2" helper_size="0" apply_no_weight="true" apply_with_weight="true" only_selected="false" uniform="false"/></defs><g inkscape:label="Layer 1" inkscape:groupmode="layer" id="layer1" transform="translate(-494.68291,-812.62907)"><path style="fill:#d5bb72;fill-rule:evenodd;stroke:#000000;stroke-width:1.00157;paint-order:stroke fill markers" d="m 525.78133,881.89763 c -1.89049,-2.45885 -3.41635,-4.06268 -4.22172,-3.81801 -0.80536,0.24467 -0.90441,2.32287 -0.28109,6.05335 0.62332,3.73047 1.96895,9.11298 3.55928,13.13977 1.59034,4.02679 3.42528,6.69766 4.89327,8.15545 1.468,1.4578 2.56897,1.70246 2.84421,1.01942 0.27524,-0.68304 -0.27524,-2.29371 -0.7136,-4.00638 -0.43836,-1.71267 -0.76457,-3.52723 -0.29562,-3.94519 0.46895,-0.41795 1.73303,0.56068 3.24181,2.17141 1.50878,1.61073 3.26217,3.85344 4.91367,5.31124 1.6515,1.4578 3.20101,2.13061 3.80153,1.85834 0.60053,-0.27228 0.25206,-1.48958 -0.34941,-3.05954 -0.60148,-1.56995 -1.45592,-3.49243 -1.84237,-4.83088 -0.38645,-1.33845 -0.30489,-2.09282 0.46989,-1.75639 0.77479,0.33643 2.24271,1.76358 3.48481,3.03849 1.24209,1.27492 2.2582,2.39745 3.49174,3.44749 1.23354,1.05004 2.68439,2.02748 3.45061,2.00648 0.76623,-0.021 0.84778,-1.04041 0.83758,-2.61036 -0.0102,-1.56995 -0.11214,-3.69033 0.51993,-4.51607 0.63206,-0.82574 1.99808,-0.35681 2.6913,0.90731 0.69322,1.26412 0.71362,3.32334 0.88693,4.67919 0.17331,1.35586 0.49952,2.00828 2.08987,0.82571 1.59035,-1.18258 4.4447,-4.20004 6.11658,-5.73939 1.67188,-1.53935 2.1612,-1.60051 2.06944,-0.48931 -0.0918,1.11121 -0.76456,3.3947 -1.10098,5.09717 -0.33641,1.70247 -0.33641,2.82382 0.60149,2.8442 0.9379,0.0204 2.81362,-1.0602 4.62823,-2.9156 1.81461,-1.8554 3.568,-4.48549 4.92386,-6.13698 1.35586,-1.65149 2.31411,-2.32431 2.24273,-0.8155 -0.0714,1.5088 -1.17233,5.19908 -1.49855,7.37048 -0.32621,2.1714 0.12233,2.82383 1.36606,2.35487 1.24373,-0.46895 3.28256,-2.05924 5.01561,-4.40397 1.73305,-2.34473 3.16023,-5.44375 4.1389,-8.59383 0.97866,-3.15009 1.50875,-6.35105 1.76361,-9.24627 0.25485,-2.89522 0.23445,-5.48453 0.0102,-7.14621 -0.22428,-1.66169 -0.65244,-2.39567 -2.0185,-0.88687 -1.36607,1.5088 -3.66994,5.26025 -5.81078,8.23702 -2.14083,2.97677 -4.11849,5.1787 -5.51512,6.453 -1.39664,1.27429 -2.21217,1.62089 -2.38547,1.0398 -0.1733,-0.58109 0.29563,-2.08982 1.11119,-4.36319 0.81556,-2.27337 1.97769,-5.31123 2.34469,-7.32972 0.36699,-2.01849 -0.0612,-3.01751 -0.80537,-2.86458 -0.74419,0.15293 -1.80438,1.45778 -3.28258,3.36414 -1.4782,1.90637 -3.37431,4.41413 -5.08233,6.56485 -1.70802,2.15073 -3.22781,3.94427 -4.49079,4.88999 -1.26297,0.94572 -2.26898,1.04353 -3.34531,-0.0138 -1.07632,-1.05736 -2.22285,-3.26974 -3.04247,-5.8249 -0.81961,-2.55517 -1.3122,-5.45279 -1.90852,-6.10266 -0.59632,-0.64987 -1.29629,0.94809 -1.8648,2.55373 -0.56851,1.60563 -1.00549,3.21875 -1.1725,4.6918 -0.16702,1.47305 -0.064,2.80588 -0.0431,3.77815 0.0209,0.97226 -0.0403,1.58391 -1.1076,1.47258 -1.06734,-0.11134 -3.14071,-0.94561 -5.28157,-2.68888 -2.14086,-1.74327 -4.34897,-4.39537 -6.04434,-6.33312 -1.69536,-1.93775 -2.87789,-3.16105 -3.92791,-4.03777 -1.05003,-0.87672 -1.9675,-1.40681 -2.12196,-0.52617 -0.15447,0.88064 0.45406,3.17189 1.20319,5.23098 0.74913,2.05909 1.63877,3.88575 2.07869,5.33967 0.43992,1.45392 0.43007,2.53493 -0.4414,2.51474 -0.87146,-0.0202 -2.60447,-1.14154 -4.61278,-3.37414 -2.0083,-2.23259 -4.29179,-5.57627 -6.18227,-8.03512 z" id="path11" sodipodi:nodetypes="scccccccccccccccccccccccccccccccccccccccccccccccccccccccccccs"/><path id="path12" style="fill:#d5bb72;fill-rule:evenodd;stroke:#000000;stroke-width:1.00157;paint-order:stroke fill markers;opacity:1" d="M 582.89971 841.94743 C 568.59192 841.70278 542.37299 841.6929 528.26885 841.96305 C 514.16471 842.2332 512.17569 842.78412 510.97783 844.04313 C 509.77998 845.30213 509.37379 847.26906 508.9915 849.62907 C 508.60921 851.98908 508.25089 854.74247 508.35283 857.31657 C 508.45477 859.89067 509.01665 862.28621 510.43877 864.23845 C 511.86088 866.19069 514.14445 867.69913 516.38213 868.28532 C 518.61981 868.87151 520.81112 868.53408 522.03447 869.49235 C 523.25781 870.45061 523.51323 872.70394 524.38994 874.82438 C 525.26666 876.94483 526.76489 878.93312 527.92705 880.24821 C 529.08922 881.5633 529.91389 882.20513 530.29619 882.23063 C 530.67851 882.25612 530.61789 881.66603 530.35283 880.13688 C 530.08778 878.60772 529.61944 876.1402 529.57354 873.48454 C 529.52766 870.82889 529.90498 867.98424 530.26689 866.08806 C 530.62879 864.19188 530.97526 863.24417 531.45439 863.38688 C 531.93353 863.52959 532.54547 864.76331 533.67705 867.30681 C 534.80864 869.85032 536.4591 873.70354 538.43682 876.97087 C 540.41454 880.23819 542.71928 882.91901 544.26885 884.87126 C 545.81841 886.8235 546.61216 888.04775 547.24932 888.37907 C 547.88647 888.7104 548.36684 888.14904 549.21807 886.46696 C 550.0693 884.78489 551.29251 881.98085 552.37822 879.84001 C 553.46393 877.69917 554.41099 876.22097 555.46611 876.28727 C 556.52124 876.35352 557.68375 877.96376 558.57354 879.50798 C 559.46332 881.05221 560.08937 882.54992 560.69658 884.18766 C 561.30379 885.82541 561.89418 887.60876 562.74541 887.81266 C 563.59664 888.01656 564.70734 886.63956 566.00713 885.09001 C 567.30692 883.54045 568.79641 881.81725 570.3001 879.75798 C 571.80378 877.6987 573.32205 875.30396 574.65752 872.93376 C 575.99299 870.56355 577.14575 868.21812 578.09893 866.44938 C 579.05212 864.68064 579.80643 863.48803 580.30596 864.12516 C 580.80549 864.76229 581.04988 867.23013 581.00908 870.07438 C 580.9683 872.91862 580.64075 876.13995 580.52861 878.34196 C 580.41647 880.54397 580.51905 881.72715 580.88604 881.92595 C 581.25304 882.12475 581.88475 881.33849 582.54229 880.28337 C 583.19983 879.22825 583.88288 877.90339 584.51494 876.62907 C 585.147 875.35476 585.72802 874.13132 586.30401 872.59196 C 586.87999 871.05261 587.45152 869.19665 588.00713 868.26384 C 588.56273 867.33105 589.1023 867.32091 589.76494 867.31071 C 590.42759 867.30052 591.21329 867.29094 592.69658 867.04118 C 594.17986 866.79142 596.36053 866.30319 598.05791 865.39079 C 599.75529 864.47839 600.96882 863.14137 601.60088 860.48063 C 602.23293 857.8199 602.28382 853.83408 602.25322 850.72477 C 602.22264 847.61545 602.11065 845.38338 600.85674 844.02751 C 599.60283 842.67164 597.20749 842.1921 582.89971 841.94743 z M 590.28252 846.69938 C 590.61861 846.69082 591.01437 846.70287 591.45049 846.76774 C 592.32272 846.89749 593.36013 847.23759 594.28643 847.71696 C 595.21273 848.19633 596.027 848.81535 596.47393 850.19938 C 596.92086 851.58342 597.00097 853.73108 596.99736 855.55485 C 596.99376 857.37862 596.90711 858.87904 595.92315 860.27751 C 594.93919 861.67597 593.05739 862.97369 591.79229 863.63688 C 590.52718 864.30008 589.87912 864.32841 589.49346 861.41618 C 589.1078 858.50395 588.98442 852.65142 588.92315 849.72477 C 588.86187 846.79812 588.86097 846.79704 588.91143 846.79704 C 588.96189 846.79704 589.06439 846.79762 589.46807 846.75798 C 589.66991 846.73815 589.94643 846.70794 590.28252 846.69938 z M 519.75518 846.82243 C 520.56308 846.8065 521.30567 846.85239 521.8001 846.88298 C 522.57264 846.93076 522.74165 846.94093 522.77861 846.98454 L 522.78057 846.98649 C 522.78111 846.98742 522.78402 846.99139 522.78447 846.99235 C 522.78824 847.00222 522.78838 847.01592 522.78838 847.02946 C 522.78838 847.11612 522.78828 847.2908 522.81377 850.31852 C 522.83926 853.34624 522.89146 859.22753 522.48369 862.13298 C 522.07592 865.03843 521.20916 864.96711 520.35283 864.82438 C 519.4965 864.68166 518.65052 864.46796 517.70244 863.88688 C 516.75436 863.30581 515.70426 862.3576 515.01104 861.10368 C 514.31781 859.84977 513.98079 858.29038 513.81768 856.31266 C 513.65457 854.33494 513.66528 851.93854 514.20049 850.24626 C 514.7357 848.55397 515.7948 847.56429 517.31377 847.13102 C 518.07325 846.91439 518.94727 846.83836 519.75518 846.82243 z "/><path id="path15" style="opacity:1;fill:#d5bb72;fill-rule:evenodd;stroke:#000000;stroke-width:1.00157;paint-order:stroke fill markers" d="M 554.22002 827.82048 C 551.01081 827.86177 548.22191 828.08696 546.50127 828.52946 C 544.78063 828.97196 544.12799 829.63118 543.69658 830.7111 C 543.26517 831.79103 543.05366 833.29231 542.57744 834.17204 C 542.10122 835.05178 541.36054 835.30953 537.88799 835.28923 C 534.41543 835.26897 528.21202 834.97056 524.79033 834.93766 C 521.36865 834.90482 520.72917 835.13849 520.55791 835.93376 C 520.38665 836.72904 520.68336 838.08497 521.19854 838.83415 C 521.71372 839.58334 522.4475 839.72605 527.98369 839.77165 C 533.51989 839.81721 543.85953 839.76712 555.12041 839.90446 C 566.38128 840.0418 578.56418 840.36603 584.72197 840.32243 C 590.87976 840.27879 591.01175 839.867 590.98565 838.91423 C 590.95952 837.96146 590.7738 836.46748 590.24151 835.74626 C 589.70922 835.02503 588.83037 835.07559 585.38994 835.14079 C 581.94951 835.20601 575.948 835.28498 572.72393 835.09391 C 569.49985 834.90284 569.05364 834.44181 568.73565 833.68962 C 568.41766 832.93743 568.22894 831.89428 567.57549 830.90837 C 566.92203 829.92247 565.80415 828.99333 563.43096 828.4572 C 561.05777 827.92108 557.42924 827.77918 554.22002 827.82048 z M 552.50322 832.3947 C 554.82259 832.38389 558.49875 832.5247 560.35674 832.63102 C 562.21473 832.73734 562.25539 832.80939 562.42119 833.25993 C 562.58699 833.71047 562.87885 834.53962 562.55986 835.12712 C 562.24088 835.71461 561.31164 836.06076 559.02471 836.1779 C 556.73778 836.29503 553.09412 836.18256 550.93877 835.84196 C 548.78342 835.50136 548.11552 834.93202 547.91729 834.37516 C 547.71906 833.8183 547.9904 833.27331 548.60674 832.92009 C 549.22308 832.56686 550.18385 832.40551 552.50322 832.3947 z "/></g></svg>