<?xml version="1.0" encoding="UTF-8" standalone="no"?>
<!-- Created with Inkscape (http://www.inkscape.org/) -->
<svg version="1.1" id="svg1" width="120" height="120" viewBox="0 0 120 120" sodipodi:docname="Smithing.svg" inkscape:version="1.4.2 (f4327f4, 2025-05-13)" xml:space="preserve" xmlns:inkscape="http://www.inkscape.org/namespaces/inkscape" xmlns:sodipodi="http://sodipodi.sourceforge.net/DTD/sodipodi-0.dtd" xmlns="http://www.w3.org/2000/svg" xmlns:svg="http://www.w3.org/2000/svg"><defs id="defs1"><inkscape:path-effect effect="bspline" id="path-effect3" is_visible="true" lpeversion="1.3" weight="33.333333" steps="2" helper_size="0" apply_no_weight="true" apply_with_weight="true" only_selected="false" uniform="false"/><inkscape:path-effect effect="fillet_chamfer" id="path-effect2" is_visible="true" lpeversion="1" nodesatellites_param="F,0,0,1,0,2.796877,0,1 @ F,0,0,1,0,20.242387,0,1 @ F,0,0,1,0,2.796877,0,1 @ F,0,0,1,0,2.796877,0,1" radius="0" unit="px" method="auto" mode="F" chamfer_steps="1" flexible="false" use_knot_distance="true" apply_no_radius="true" apply_with_radius="true" only_selected="false" hide_knots="false"/><inkscape:path-effect effect="bspline" id="path-effect15" is_visible="true" lpeversion="1.3" weight="33.333333" steps="2" helper_size="0" apply_no_weight="true" apply_with_weight="true" only_selected="false" uniform="false"/><inkscape:path-effect effect="bspline" id="path-effect14" is_visible="true" lpeversion="1.3" weight="33.333333" steps="2" helper_size="0" apply_no_weight="true" apply_with_weight="true" only_selected="false" uniform="false"/><inkscape:path-effect effect="bspline" id="path-effect13" is_visible="true" lpeversion="1.3" weight="33.333333" steps="2" helper_size="0" apply_no_weight="true" apply_with_weight="true" only_selected="false" uniform="false"/><inkscape:path-effect effect="bspline" id="path-effect10" is_visible="true" lpeversion="1.3" weight="33.333333" steps="2" helper_size="0" apply_no_weight="true" apply_with_weight="true" only_selected="false" uniform="false"/><inkscape:path-effect effect="fillet_chamfer" id="path-effect9" is_visible="true" lpeversion="1" nodesatellites_param="F,0,1,1,0,1.4718675,0,1 @ F,0,1,1,0,1.4718675,0,1 @ F,0,1,1,0,1.4718675,0,1 @ F,0,0,1,0,1.4718675,0,1" radius="0" unit="px" method="auto" mode="F" chamfer_steps="1" flexible="false" use_knot_distance="true" apply_no_radius="true" apply_with_radius="true" only_selected="false" hide_knots="false"/><inkscape:path-effect effect="fillet_chamfer" id="path-effect8" is_visible="true" lpeversion="1" nodesatellites_param="F,0,0,1,0,0,0,1 @ F,0,0,1,0,0.91078152,0,1 @ F,0,0,1,0,0,0,1 @ F,0,0,1,0,0,0,1 @ F,0,0,1,0,0,0,1" radius="0" unit="px" method="auto" mode="F" chamfer_steps="1" flexible="false" use_knot_distance="true" apply_no_radius="true" apply_with_radius="true" only_selected="false" hide_knots="false"/><inkscape:path-effect effect="bspline" id="path-effect7" is_visible="true" lpeversion="1.3" weight="33.333333" steps="2" helper_size="0" apply_no_weight="true" apply_with_weight="true" only_selected="false" uniform="false"/><inkscape:path-effect effect="bspline" id="path-effect6" is_visible="true" lpeversion="1.3" weight="33.333333" steps="2" helper_size="0" apply_no_weight="true" apply_with_weight="true" only_selected="false" uniform="false"/><inkscape:path-effect effect="bspline" id="path-effect5" is_visible="true" lpeversion="1.3" weight="33.333333" steps="2" helper_size="0" apply_no_weight="true" apply_with_weight="true" only_selected="false" uniform="false"/><inkscape:path-effect effect="bspline" id="path-effect1" is_visible="true" lpeversion="1.3" weight="33.333333" steps="2" helper_size="0" apply_no_weight="true" apply_with_weight="true" only_selected="false" uniform="false"/></defs><sodipodi:namedview id="namedview1" pagecolor="#505050" bordercolor="#eeeeee" borderopacity="1" inkscape:showpageshadow="0" inkscape:pageopacity="0" inkscape:pagecheckerboard="0" inkscape:deskcolor="#505050" inkscape:zoom="4.7791667" inkscape:cx="48.334787" inkscape:cy="51.368788" inkscape:window-width="2560" inkscape:window-height="1369" inkscape:window-x="2552" inkscape:window-y="-8" inkscape:window-maximized="1" inkscape:current-layer="svg1"/><g inkscape:groupmode="layer" inkscape:label="Image" id="g1"/><path style="opacity:1;fill:#d5bb72;fill-rule:evenodd;stroke:#000000;stroke-width:1.00157;paint-order:stroke fill markers" d="m 83.026063,81.708747 8.58635,0 A 20.242387,20.242387 135 0 0 111.8548,61.46636 l 0,-0.744676 a 2.796877,2.796877 45 0 0 -2.79688,-2.796877 H 83.026063 a 2.796877,2.796877 135 0 0 -2.796877,2.796877 V 78.91187 a 2.796877,2.796877 45 0 0 2.796877,2.796877 z" id="path1" inkscape:path-effect="#path-effect2" inkscape:original-d="M 80.229186,81.708747 H 111.8548 V 57.924807 H 80.229186 Z" sodipodi:nodetypes="ccccc"/><path id="path2" style="opacity:1;fill:#d5bb72;fill-rule:evenodd;stroke:#000000;stroke-width:1.00157;paint-order:stroke fill markers" d="m 77.453125,54.537109 -63.988281,0.355469 v 10.873047 l 19.234375,0.183594 c 7.663263,0.53735 13.611141,7.051937 13.611328,14.908203 8.17e-4,7.857019 -5.947332,14.372754 -13.611328,14.910156 v 10.412112 l 61.105469,-0.16992 V 96.685547 C 93.206029,96.760724 92.603313,96.798557 92,96.798828 88.378478,96.798671 82.581612,95.15901 79.889931,91.561497 77.003986,87.704345 77.463908,82.170074 77.43463,80.936898 Z" sodipodi:nodetypes="ccccccccccscc"/><path style="opacity:1;fill:#d5bb72;fill-rule:evenodd;stroke:#000000;stroke-width:1.00157;paint-order:stroke fill markers" d="m 64.498692,37.724498 c -1.168265,-0.7585 -1.708805,-1.089799 -1.89189,-0.924142 -0.183084,0.165656 -0.0087,0.82824 0.200524,2.284235 0.209244,1.455995 0.453354,3.705296 0.531819,5.00434 0.07847,1.299044 -0.0087,1.647774 -0.810826,1.691363 -0.802107,0.04359 -2.319077,-0.217957 -3.36529,-0.261547 -1.046214,-0.04359 -1.621616,0.130774 -2.502186,1.272905 -0.88057,1.142131 -2.066248,3.25194 -2.877063,4.385333 -0.810816,1.133393 -1.246727,1.290321 -3.609455,1.299038 -2.362728,0.0087 -6.652093,-0.130775 -8.753226,-0.462079 -2.101132,-0.331305 -2.01395,-0.854397 -1.918047,-3.469963 0.0959,-2.615566 0.200522,-7.323405 0.505671,-9.999959 0.305149,-2.676554 0.810806,-3.321703 1.717533,-2.737552 0.906726,0.584151 2.214459,2.397541 3.809944,4.289453 1.595486,1.891911 3.478621,3.862229 4.603299,4.891 1.124677,1.028772 1.490841,1.115954 1.53443,0.775929 0.04359,-0.340025 -0.235393,-1.107228 -1.107248,-2.850935 -0.871854,-1.743706 -2.336515,-4.463791 -3.225795,-6.974712 -0.889279,-2.510921 -1.203135,-4.812532 -1.002605,-7.00087 0.200531,-2.188338 0.915425,-4.263275 1.787274,-6.067998 0.87185,-1.804723 1.9006,-3.33913 3.164783,-4.777679 1.264182,-1.438549 2.763716,-2.781155 4.411511,-4.01046 1.647795,-1.229305 3.443748,-2.345237 5.021791,-3.339143 1.578044,-0.993906 2.938086,-1.8657279 4.315607,-2.4673006 1.37752,-0.6015726 2.772436,-0.9328651 3.007823,-0.5492448 0.235388,0.3836203 -0.688744,1.4821164 -1.682652,2.7114234 -0.993907,1.229308 -2.05753,2.58935 -2.48473,3.940715 -0.427199,1.351365 -0.217962,2.693971 0.671331,3.931995 0.889292,1.238023 2.458571,2.371391 4.132521,3.687884 1.67395,1.316493 3.452467,2.816028 5.170008,4.254577 1.71754,1.438549 3.374002,2.816027 4.917173,4.376638 1.54317,1.56061 2.972958,3.304255 4.115077,5.265915 1.142118,1.961661 1.996504,4.141217 2.467298,6.224934 0.470795,2.083716 0.557977,4.07147 0.418479,5.736697 -0.139498,1.665227 -0.505663,3.007833 -1.133397,3.775054 -0.627733,0.767221 -1.516992,0.959021 -3.068889,1.054924 -1.551896,0.0959 -3.766324,0.0959 -5.30077,-0.209248 -1.534447,-0.30515 -2.388833,-0.915426 -2.693974,-1.857025 -0.305141,-0.941599 -0.06103,-2.214459 -0.688771,-3.89713 -0.627739,-1.682672 -2.127273,-3.775045 -3.775068,-5.414115 -1.647795,-1.639071 -3.443749,-2.824749 -4.612014,-3.58325 z" id="path3" inkscape:path-effect="#path-effect3" inkscape:original-d="m 63.870968,37.297297 c -0.540541,-0.331299 -1.081081,-0.662598 -1.621622,-0.993897 0.174372,0.662612 0.348736,1.325196 0.523104,1.987795 0.24412,2.249391 0.48823,4.498692 0.732345,6.748038 -0.08718,0.348743 -0.174368,0.697472 -0.261552,1.046207 -1.517031,-0.261557 -3.034001,-0.523103 -4.551002,-0.784655 -0.575426,0.174371 -1.150828,0.348736 -1.726243,0.523104 -1.185725,2.109894 -2.371403,4.219703 -3.557105,6.329555 -0.435929,0.156934 -0.87184,0.313862 -1.307759,0.470793 -4.289537,-0.139497 -8.578902,-0.278988 -12.868353,-0.418483 0.08719,-0.523114 0.174368,-1.046207 0.261552,-1.569311 0.104623,-4.708028 0.209242,-9.415867 0.313862,-14.123801 0.505677,-0.645174 1.011334,-1.290323 1.517001,-1.935484 1.307786,1.813463 2.615519,3.626853 3.923278,5.440279 1.883212,1.970397 3.766347,3.940715 5.649521,5.911072 0.36618,0.08719 0.732345,0.174368 1.098518,0.261552 -0.278994,-0.767234 -0.557978,-1.534437 -0.836966,-2.301656 -1.46472,-2.720194 -2.929381,-5.440279 -4.394072,-8.160419 -0.313868,-2.301702 -0.627724,-4.603313 -0.941586,-6.904969 0.714922,-2.07502 1.429816,-4.149957 2.144725,-6.224935 1.028791,-1.534468 2.057541,-3.068875 3.086312,-4.603313 1.499594,-1.34266 2.999128,-2.685266 4.498692,-4.027899 1.796026,-1.115977 3.591979,-2.231909 5.387969,-3.347864 1.360097,-0.8718569 2.720139,-1.743679 4.080209,-2.6155186 1.394971,-0.3313057 2.789887,-0.6625981 4.18483,-0.9938971 -0.924168,1.0985398 -1.8483,2.1970357 -2.77245,3.2955537 -1.063665,1.360097 -2.127288,2.720139 -3.190933,4.080209 0.209246,1.34266 0.418483,2.685266 0.627725,4.027899 1.569343,1.133414 3.138622,2.266783 4.707934,3.400174 1.778588,1.499594 3.557105,2.999129 5.335658,4.498693 1.656528,1.377534 3.31299,2.755013 4.969486,4.132519 1.429845,1.743714 2.859633,3.487359 4.28945,5.231038 0.85442,2.179642 1.708806,4.359198 2.563209,6.538797 0.08719,1.987834 0.174368,3.975588 0.261552,5.963382 -0.36618,1.34266 -0.732346,2.685266 -1.098518,4.027899 -0.889294,0.191809 -1.778553,0.38361 -2.667829,0.575414 -2.214517,0 -4.428945,0 -6.643418,0 -0.85442,-0.610299 -1.708806,-1.220575 -2.563208,-1.830863 0.24412,-1.272911 0.48823,-2.545771 0.732345,-3.818657 -1.499594,-2.092457 -2.999128,-4.18483 -4.498692,-6.277245 -1.796026,-1.185726 -3.59198,-2.371404 -5.387969,-3.557106 z"/></svg>