<?xml version="1.0" encoding="UTF-8" standalone="no"?>
<!-- Created with Inkscape (http://www.inkscape.org/) -->
<svg width="30.691666mm" height="30.691666mm" viewBox="0 0 116 116" version="1.1" id="svg1" xml:space="preserve" inkscape:version="1.4.2 (f4327f4, 2025-05-13)" sodipodi:docname="Forestry.svg" xmlns:inkscape="http://www.inkscape.org/namespaces/inkscape" xmlns:sodipodi="http://sodipodi.sourceforge.net/DTD/sodipodi-0.dtd" xmlns="http://www.w3.org/2000/svg" xmlns:svg="http://www.w3.org/2000/svg"><sodipodi:namedview id="namedview1" pagecolor="#505050" bordercolor="#eeeeee" borderopacity="1" inkscape:showpageshadow="0" inkscape:pageopacity="0" inkscape:pagecheckerboard="0" inkscape:deskcolor="#505050" inkscape:document-units="mm" inkscape:zoom="5.6568543" inkscape:cx="46.138717" inkscape:cy="70.091959" inkscape:window-width="2560" inkscape:window-height="1369" inkscape:window-x="2552" inkscape:window-y="-8" inkscape:window-maximized="1" inkscape:current-layer="layer1"/><defs id="defs1"><inkscape:path-effect effect="bspline" id="path-effect3" is_visible="true" lpeversion="1.3" weight="33.333333" steps="2" helper_size="0" apply_no_weight="true" apply_with_weight="true" only_selected="false" uniform="false"/><inkscape:path-effect effect="bspline" id="path-effect2" is_visible="true" lpeversion="1.3" weight="33.333333" steps="2" helper_size="0" apply_no_weight="true" apply_with_weight="true" only_selected="false" uniform="false"/><inkscape:path-effect effect="bspline" id="path-effect1" is_visible="true" lpeversion="1.3" weight="33.333333" steps="2" helper_size="0" apply_no_weight="true" apply_with_weight="true" only_selected="false" uniform="false"/><inkscape:path-effect effect="fillet_chamfer" id="path-effect4" is_visible="true" lpeversion="1" nodesatellites_param="F,0,1,1,0,0.66776284,0,1 @ F,0,0,1,0,0,0,1 @ F,0,1,1,0,0.66776284,0,1 @ F,0,1,1,0,0.66776284,0,1 @ F,0,0,1,0,0,0,1 @ F,0,0,1,0,0,0,1 @ F,0,1,1,0,0.66776284,0,1 @ F,0,1,1,0,0.66776284,0,1 @ F,0,0,1,0,0,0,1 @ F,0,0,1,0,0,0,1 @ F,0,1,1,0,0.66776284,0,1 @ F,0,1,1,0,0.66776284,0,1 @ F,0,0,1,0,0,0,1 @ F,0,0,1,0,0,0,1 @ F,0,0,1,0,0,0,1 @ F,0,0,1,0,0,0,1 @ F,0,1,1,0,0.66776284,0,1 @ F,0,1,1,0,0.66776284,0,1 @ F,0,0,1,0,0,0,1 @ F,0,0,1,0,0,0,1 @ F,0,1,1,0,0.66776284,0,1 @ F,0,1,1,0,0.66776284,0,1 @ F,0,0,1,0,0,0,1 @ F,0,0,1,0,0,0,1 @ F,0,1,1,0,0.66776284,0,1 @ F,0,0,1,0,0.66776284,0,1 @ F,0,0,1,0,0,0,1 @ F,0,1,1,0,0.66776284,0,1" radius="0" unit="px" method="auto" mode="F" chamfer_steps="1" flexible="false" use_knot_distance="true" apply_no_radius="true" apply_with_radius="true" only_selected="false" hide_knots="false"/></defs><g inkscape:label="Layer 1" inkscape:groupmode="layer" id="layer1" transform="translate(-339,-504)"><path style="fill:#d5bb72;fill-rule:evenodd;stroke:#000000;stroke-width:1.00157;paint-order:stroke fill markers" d="m 373.72917,589.80208 c 0.1875,1.63542 0.16666,2.44792 -0.10417,2.8125 -0.27083,0.36459 -0.79167,0.28125 -2.15627,-0.0729 -1.36461,-0.35417 -3.5729,-0.97916 -5.58333,-1.15624 -2.01044,-0.17708 -3.8229,0.0937 -4.93749,0.14583 -1.11459,0.0521 -1.53124,-0.11458 -1.74999,-0.56251 -0.21875,-0.44792 -0.23959,-1.17707 0.69793,-4.45838 0.93752,-3.28131 2.83332,-9.11453 5.08334,-14.10416 2.25003,-4.98962 4.85414,-9.13537 6.78124,-11.85413 1.92709,-2.71876 3.17707,-4.0104 4.02082,-4.79166 0.84376,-0.78125 1.28125,-1.05208 1.70834,-0.97916 0.42708,0.0729 0.84374,0.48958 1.96876,1.40626 1.12502,0.91668 2.95832,2.33332 4.12499,3.27083 1.16667,0.9375 1.66666,1.39583 1.70832,1.89583 0.0417,0.50001 -0.37499,1.04166 -1.8021,2.87503 -1.42711,1.83336 -3.86456,4.9583 -5.54165,7.62499 -1.6771,2.66669 -2.59374,4.87498 -3.33333,6.69791 -0.73959,1.82293 -1.30208,3.2604 -1.38541,5.20834 -0.0833,1.94794 0.3125,4.40623 0.5,6.04164 z" id="path1"/><path style="fill:#d5bb72;fill-rule:evenodd;stroke:#000000;stroke-width:1.00157;paint-order:stroke fill markers" d="m 378.1875,544.57292 c -2.77083,3.42708 -3.41667,4.11458 -3.32291,4.65625 0.0938,0.54167 0.92708,0.9375 4.10422,3.2292 3.17713,2.29171 8.69786,6.47913 12.49996,9.84374 3.8021,3.36461 5.8854,5.90622 7.75,9.1771 1.8646,3.27087 3.5104,7.27079 4.37498,10.16664 0.86458,2.89585 0.94792,4.68748 1.15625,5.67707 0.20834,0.98958 0.54167,1.17708 1.29168,1.02083 0.75001,-0.15626 1.91665,-0.65625 5.1042,-2.27086 3.18756,-1.61461 8.39579,-4.34372 12.70832,-8.84379 4.31253,-4.50006 7.72913,-10.77077 9.61455,-14.74995 1.88542,-3.97918 2.23958,-5.66661 2.65625,-7.80208 0.41668,-2.13546 0.89582,-4.71869 0.78124,-6.06246 -0.11459,-1.34378 -0.82291,-1.44794 -1.5,-1.41669 -0.67709,0.0312 -1.32291,0.19791 -3.48961,0.4375 -2.1667,0.23959 -5.85413,0.55208 -9.88543,-0.19794 -4.03129,-0.75002 -8.4062,-2.56248 -12.76041,-5.2396 -4.35421,-2.67712 -8.68746,-6.21871 -11.60414,-8.60414 -2.91668,-2.38543 -4.41665,-3.61457 -5.33332,-4.21874 -0.91667,-0.60417 -1.25,-0.58333 -3.86463,2.51048 -2.61463,3.09381 -7.51037,9.26035 -10.2812,12.68744 z" id="path2" sodipodi:nodetypes="ccccccccccccccccccccc"/><path style="fill:#d5bb72;fill-rule:evenodd;stroke:#000000;stroke-width:1.00157;paint-order:stroke fill markers" d="m 406.68138,534.67156 c -0.4608,0.54458 -0.72762,0.78051 -1.05677,0.87918 -0.32916,0.0987 -0.72119,0.0606 -2.12746,-0.89778 -1.40628,-0.95835 -3.82669,-2.83688 -5.14109,-3.95326 -1.3144,-1.11637 -1.52273,-1.47053 -1.53314,-1.83512 -0.0104,-0.36459 0.17708,-0.73958 0.66667,-1.3125 0.48959,-0.57293 1.28124,-1.34375 1.82291,-1.85416 0.54167,-0.51042 0.83333,-0.76042 1.15625,-0.78125 0.32292,-0.0208 0.67708,0.1875 1.97919,1.20835 1.3021,1.02085 3.55206,2.85415 4.80206,3.86456 1.25,1.01042 1.5,1.19792 1.53125,1.46875 0.0312,0.27084 -0.15625,0.625 -0.57471,1.2256 -0.41846,0.60061 -1.06436,1.44304 -1.52516,1.98763 z" id="path3" sodipodi:nodetypes="ccccccccccccc"/></g></svg>