<?xml version="1.0" encoding="UTF-8" standalone="no"?>
<!-- Created with Inkscape (http://www.inkscape.org/) -->
<svg width="31.581846mm" height="29.518829mm" viewBox="0 0 119.36446 111.56723" version="1.1" id="svg1" xml:space="preserve" inkscape:version="1.4.2 (f4327f4, 2025-05-13)" sodipodi:docname="Carpentry.svg" xmlns:inkscape="http://www.inkscape.org/namespaces/inkscape" xmlns:sodipodi="http://sodipodi.sourceforge.net/DTD/sodipodi-0.dtd" xmlns="http://www.w3.org/2000/svg" xmlns:svg="http://www.w3.org/2000/svg"><sodipodi:namedview id="namedview1" pagecolor="#505050" bordercolor="#eeeeee" borderopacity="1" inkscape:showpageshadow="0" inkscape:pageopacity="0" inkscape:pagecheckerboard="0" inkscape:deskcolor="#505050" inkscape:document-units="mm" inkscape:zoom="4.0872335" inkscape:cx="85.387831" inkscape:cy="72.053628" inkscape:window-width="2560" inkscape:window-height="1369" inkscape:window-x="2552" inkscape:window-y="-8" inkscape:window-maximized="1" inkscape:current-layer="layer1"/><defs id="defs1"><inkscape:path-effect effect="fillet_chamfer" id="path-effect6" is_visible="true" lpeversion="1" nodesatellites_param="F,0,0,1,0,5.3112383,0,1 @ F,0,0,1,0,4.4306891,0,1 @ F,0,0,1,0,4.9624877,0,1 @ F,0,0,1,0,5.1302095,0,1" radius="0" unit="px" method="auto" mode="F" chamfer_steps="1" flexible="false" use_knot_distance="true" apply_no_radius="true" apply_with_radius="true" only_selected="false" hide_knots="false"/><inkscape:path-effect effect="fillet_chamfer" id="path-effect5" is_visible="true" lpeversion="1" nodesatellites_param="F,0,0,1,0,0,0,1 @ F,0,0,1,0,0,0,1 @ F,0,0,1,0,0,0,1 @ F,0,0,1,0,0,0,1 @ F,0,0,1,0,0,0,1 @ F,0,0,1,0,0,0,1 @ F,0,0,1,0,0,0,1 @ F,0,0,1,0,0,0,1 @ F,0,0,1,0,2.1370099,0,1 @ F,0,0,1,0,0,0,1 @ F,0,0,1,0,0,0,1 @ F,0,0,1,0,0,0,1 @ F,0,0,1,0,0,0,1 @ F,0,0,1,0,2.1410089,0,1 @ F,0,0,1,0,0,0,1 @ F,0,0,1,0,0,0,1" radius="0" unit="px" method="auto" mode="F" chamfer_steps="1" flexible="false" use_knot_distance="true" apply_no_radius="true" apply_with_radius="true" only_selected="false" hide_knots="false"/><inkscape:path-effect effect="fillet_chamfer" id="path-effect4" is_visible="true" lpeversion="1" nodesatellites_param="F,0,0,1,0,0,0,1 @ F,0,0,1,0,0,0,1 @ F,0,0,1,0,2.5562817,0,1 @ F,0,0,1,0,2.2192563,0,1" radius="0" unit="px" method="auto" mode="F" chamfer_steps="1" flexible="false" use_knot_distance="true" apply_no_radius="true" apply_with_radius="true" only_selected="false" hide_knots="false"/><inkscape:path-effect effect="fillet_chamfer" id="path-effect3" is_visible="true" lpeversion="1" nodesatellites_param="F,0,0,1,0,2.7117078,0,1 @ F,0,0,1,0,2.5128279,0,1 @ F,0,0,1,0,1.7677816,0,1 @ F,0,0,1,0,1.9056209,0,1" radius="0.080609024" unit="mm" method="auto" mode="F" chamfer_steps="1" flexible="false" use_knot_distance="true" apply_no_radius="true" apply_with_radius="true" only_selected="false" hide_knots="false"/><inkscape:path-effect effect="bspline" id="path-effect2" is_visible="true" lpeversion="1.3" weight="33.333333" steps="2" helper_size="0" apply_no_weight="true" apply_with_weight="true" only_selected="false" uniform="false"/></defs><g inkscape:label="Layer 1" inkscape:groupmode="layer" id="layer1" transform="translate(-494.68291,-812.62907)"><path id="rect1-5-1" style="opacity:1;fill:#d5bb72;fill-rule:evenodd;stroke:#000000;stroke-width:0.755906;paint-order:stroke fill markers;fill-opacity:1" d="m 583.38366,867.60703 -69.46466,-48.77871 -2.98673,0.73655 -10.27444,14.62904 0.58255,0.10274 6.58468,1.38007 1.19256,8.4562 1.51009,0.20349 6.63533,1.11101 1.61797,8.85049 1.00335,0.13418 6.63533,1.11101 1.81595,9.93225 6.57919,1.1014 1.63902,8.96376 0.41786,0.0724 6.58702,1.36449 1.12017,7.79501 6.48881,0.93322 1.65997,8.03587 8.23941,5.78691 z"/><path id="rect3" style="opacity:1;fill:#d5bb72;fill-opacity:1;fill-rule:evenodd;stroke:#000000;stroke-width:0.755906;paint-order:stroke fill markers" d="m 606.46948,884.77271 c -0.2,-0.47894 -0.53441,-0.89224 -0.9644,-1.18851 l -18.29023,-12.59696 c -0.86705,-0.59753 -2.05438,-0.37856 -2.65125,0.48893 l -20.10729,29.19771 c -0.55388,0.80361 -0.35163,1.90397 0.45173,2.45823 l 18.56725,12.7869 c 1.14281,0.7866 2.70685,0.49816 3.49395,-0.64436 l 2.67467,-3.88175 a 2.121798,2.121798 0 0 0 -0.55833,-2.95954 l -1.08095,-0.73234 c -1.16772,-0.7921 -1.47205,-2.38094 -0.68045,-3.54901 l 8.02022,-11.82828 c 0.68777,-1.01483 2.06823,-1.27976 3.08281,-0.59155 l 1.47071,0.99834 a 2.1569099,2.1569099 0 0 0 2.98711,-0.56275 l 3.31271,-4.81256 c 0.47773,-0.69397 0.60577,-1.5706 0.34647,-2.37221 l 9e-4,6.2e-4 c -0.0232,-0.0706 -0.0486,-0.1403 -0.0769,-0.20901 z m -13.36158,-0.83742 a 4.6695168,4.6249715 79.90081 0 1 -0.8899,5.10586 l -9.45837,13.69825 a 4.4518727,4.4094037 79.90081 0 1 -6.13967,1.0934 4.793393,4.747666 79.90081 0 1 -0.91568,-6.71781 l 9.25853,-13.40909 a 5.1547376,5.1055635 79.90081 0 1 7.10951,-1.26678 4.6695168,4.6249715 79.90081 0 1 1.03558,1.49617 z"/></g></svg>