<?xml version="1.0" encoding="UTF-8" standalone="no"?>
<!-- Created with Inkscape (http://www.inkscape.org/) -->
<svg width="30.691666mm" height="30.691666mm" viewBox="0 0 116 116" version="1.1" id="svg1" xml:space="preserve" inkscape:version="1.4.2 (f4327f4, 2025-05-13)" sodipodi:docname="Mining.svg" xmlns:inkscape="http://www.inkscape.org/namespaces/inkscape" xmlns:sodipodi="http://sodipodi.sourceforge.net/DTD/sodipodi-0.dtd" xmlns="http://www.w3.org/2000/svg" xmlns:svg="http://www.w3.org/2000/svg"><sodipodi:namedview id="namedview1" pagecolor="#505050" bordercolor="#eeeeee" borderopacity="1" inkscape:showpageshadow="0" inkscape:pageopacity="0" inkscape:pagecheckerboard="0" inkscape:deskcolor="#505050" inkscape:document-units="mm" inkscape:zoom="5.7802209" inkscape:cx="28.718626" inkscape:cy="61.50284" inkscape:window-width="2560" inkscape:window-height="1369" inkscape:window-x="2552" inkscape:window-y="-8" inkscape:window-maximized="1" inkscape:current-layer="layer1"/><defs id="defs1"><inkscape:path-effect effect="bspline" id="path-effect9" is_visible="true" lpeversion="1.3" weight="33.333333" steps="2" helper_size="0" apply_no_weight="true" apply_with_weight="true" only_selected="false" uniform="false"/><inkscape:path-effect effect="fillet_chamfer" id="path-effect8" is_visible="true" lpeversion="1" nodesatellites_param="F,0,1,1,0,3.7801326,0,1 @ F,0,0,1,0,3.7801326,0,1 @ F,0,1,1,0,3.7801326,0,1 @ F,0,1,1,0,3.7801326,0,1" radius="0" unit="px" method="auto" mode="F" chamfer_steps="1" flexible="false" use_knot_distance="true" apply_no_radius="true" apply_with_radius="true" only_selected="false" hide_knots="false"/><inkscape:path-effect effect="bspline" id="path-effect7" is_visible="true" lpeversion="1.3" weight="33.333333" steps="2" helper_size="0" apply_no_weight="true" apply_with_weight="true" only_selected="false" uniform="false"/><inkscape:path-effect effect="fillet_chamfer" id="path-effect17" is_visible="true" lpeversion="1" nodesatellites_param="F,0,0,1,0,0.33059844,0,1 @ F,0,0,1,0,0.20426327,0,1 @ F,0,0,1,0,0.38801222,0,1 @ F,0,0,1,0,0.32092259,0,1 @ F,0,0,1,0,0.31528971,0,1 @ F,0,0,1,0,0.33616256,0,1 @ F,0,0,1,0,0.34025008,0,1 @ F,0,0,1,0,0.60477687,0,1 @ F,0,0,1,0,0.41424075,0,1 @ F,0,0,1,0,0.34330529,0,1 @ F,0,0,1,0,0.41094179,0,1 @ F,0,0,1,0,0.46641876,0,1" radius="0" unit="px" method="auto" mode="F" chamfer_steps="1" flexible="false" use_knot_distance="true" apply_no_radius="true" apply_with_radius="true" only_selected="false" hide_knots="false"/><inkscape:path-effect effect="fillet_chamfer" id="path-effect16" is_visible="true" lpeversion="1" nodesatellites_param="F,0,0,1,0,0.223638,0,1 @ F,0,0,1,0,0.58035164,0,1 @ F,0,0,1,0,0,0,1 @ F,0,0,1,0,0,0,1 @ F,0,0,1,0,0.34332015,0,1 @ F,0,0,1,0,0.23356835,0,1 @ F,0,0,1,0,0.26327639,0,1 @ F,0,0,1,0,0.33689728,0,1 @ F,0,0,1,0,0.24079784,0,1" radius="0" unit="px" method="auto" mode="F" chamfer_steps="1" flexible="false" use_knot_distance="true" apply_no_radius="true" apply_with_radius="true" only_selected="false" hide_knots="false"/><inkscape:path-effect effect="fillet_chamfer" id="path-effect15" is_visible="true" lpeversion="1" nodesatellites_param="F,0,0,1,0,0.41056798,0,1 @ F,0,0,1,0,0,0,1 @ F,0,0,1,0,0,0,1 @ F,0,0,1,0,0,0,1 @ F,0,0,1,0,0.43736811,0,1 @ F,0,0,1,0,0.2507342,0,1 @ F,0,0,1,0,0.40818635,0,1 @ F,0,0,1,0,0.62731502,0,1 @ F,0,0,1,0,0.46352548,0,1 @ F,0,0,1,0,0.60047282,0,1 @ F,0,0,1,0,0.48785587,0,1 @ F,0,0,1,0,0.59474698,0,1 @ F,0,0,1,0,0.72593976,0,1" radius="0" unit="px" method="auto" mode="F" chamfer_steps="1" flexible="false" use_knot_distance="true" apply_no_radius="true" apply_with_radius="true" only_selected="false" hide_knots="false"/><inkscape:path-effect effect="fillet_chamfer" id="path-effect14" is_visible="true" lpeversion="1" nodesatellites_param="F,0,0,1,0,0.52342723,0,1 @ F,0,0,1,0,1.2788187,0,1 @ F,0,0,1,0,0.87942296,0,1 @ F,0,0,1,0,0.83435291,0,1 @ F,0,0,1,0,0.90520181,0,1 @ F,0,0,1,0,0.93027934,0,1 @ F,0,0,1,0,0.90305365,0,1 @ F,0,0,1,0,0.88226173,0,1 @ F,0,0,1,0,0.98408246,0,1 @ F,0,0,1,0,0.98408246,0,1 @ F,0,0,1,0,1.8809959,0,1 @ F,0,0,1,0,1.1570947,0,1 @ F,0,0,1,0,0.54198196,0,1 @ F,0,0,1,0,0.98408246,0,1" radius="0" unit="px" method="auto" mode="F" chamfer_steps="1" flexible="false" use_knot_distance="true" apply_no_radius="true" apply_with_radius="true" only_selected="false" hide_knots="false"/><inkscape:path-effect effect="fillet_chamfer" id="path-effect13" is_visible="true" lpeversion="1" nodesatellites_param="F,0,0,1,0,0.73647515,0,1 @ F,0,0,1,0,0.63897998,0,1 @ F,0,0,1,0,0.73865658,0,1 @ F,0,0,1,0,0.65898269,0,1 @ F,0,0,1,0,0.81110598,0,1 @ F,0,0,1,0,0,0,1 @ F,0,0,1,0,0,0,1 @ F,0,0,1,0,0.90148277,0,1 @ F,0,0,1,0,0.9346951,0,1 @ F,0,0,1,0,1.0627991,0,1 @ F,0,0,1,0,1.0996625,0,1 @ F,0,0,1,0,0.53207589,0,1 @ F,0,0,1,0,0.54721281,0,1" radius="0" unit="px" method="auto" mode="F" chamfer_steps="1" flexible="false" use_knot_distance="true" apply_no_radius="true" apply_with_radius="true" only_selected="false" hide_knots="false"/><inkscape:path-effect effect="bspline" id="path-effect6" is_visible="true" lpeversion="1.3" weight="33.333333" steps="2" helper_size="0" apply_no_weight="true" apply_with_weight="true" only_selected="false" uniform="false"/><inkscape:path-effect effect="bspline" id="path-effect5" is_visible="true" lpeversion="1.3" weight="33.333333" steps="2" helper_size="0" apply_no_weight="true" apply_with_weight="true" only_selected="false" uniform="false"/><inkscape:path-effect effect="bspline" id="path-effect4" is_visible="true" lpeversion="1.3" weight="33.333333" steps="2" helper_size="0" apply_no_weight="true" apply_with_weight="true" only_selected="false" uniform="false"/><inkscape:path-effect effect="bspline" id="path-effect3" is_visible="true" lpeversion="1.3" weight="33.333333" steps="2" helper_size="0" apply_no_weight="true" apply_with_weight="true" only_selected="false" uniform="false"/><inkscape:path-effect effect="bspline" id="path-effect2" is_visible="true" lpeversion="1.3" weight="33.333333" steps="2" helper_size="0" apply_no_weight="true" apply_with_weight="true" only_selected="false" uniform="false"/><inkscape:path-effect effect="bspline" id="path-effect1" is_visible="true" lpeversion="1.3" weight="33.333333" steps="2" helper_size="0" apply_no_weight="true" apply_with_weight="true" only_selected="false" uniform="false"/><inkscape:path-effect effect="bspline" id="path-effect1-2" is_visible="true" lpeversion="1.3" weight="33.333333" steps="2" helper_size="0" apply_no_weight="true" apply_with_weight="true" only_selected="false" uniform="false"/><inkscape:path-effect effect="bspline" id="path-effect9-2" is_visible="true" lpeversion="1.3" weight="33.333333" steps="2" helper_size="0" apply_no_weight="true" apply_with_weight="true" only_selected="false" uniform="false"/></defs><g inkscape:label="Layer 1" inkscape:groupmode="layer" id="layer1" transform="translate(-340,-234)"><path style="fill:#d5bb72;fill-rule:evenodd;stroke:#000000;stroke-width:1.26654;paint-order:stroke fill markers" d="m 352.24977,329.65828 c -1.92312,-1.69233 -2.50043,-1.73983 -3.14869,-1.61515 -0.64826,0.12468 -1.36743,0.42153 -2.14203,1.05889 -0.77459,0.63736 -1.60451,1.61514 -1.98104,2.35976 -0.37654,0.74462 -0.2996,1.25593 1.26811,3.00471 1.56772,1.74878 4.62605,4.73484 6.72856,6.82733 2.10251,2.09249 3.24904,3.29124 4.13429,3.90081 0.88525,0.60957 1.50911,0.62988 2.20712,0.092 0.69801,-0.53792 1.47011,-1.63401 2.19164,-2.46819 0.72154,-0.83418 1.39242,-1.40633 1.25111,-2.16162 -0.1413,-0.75528 -1.09482,-1.69365 -3.20599,-3.83138 -2.11117,-2.13772 -5.37996,-5.47479 -7.30308,-7.16712 z" id="path8-5" inkscape:path-effect="#path-effect9-2" inkscape:original-d="m 350.90399,328.01344 c -0.57734,-0.0475 -1.15465,-0.095 -1.73198,-0.14248 -0.71919,0.29685 -1.43836,0.5937 -2.15756,0.89055 -0.82999,0.97787 -1.65991,1.95565 -2.48992,2.93355 0.0769,0.51135 0.15387,1.02265 0.23082,1.534 3.05849,2.98621 6.11682,5.97227 9.17522,8.9584 1.14662,1.19885 2.29315,2.3976 3.43976,3.59644 0.62389,0.0203 1.24775,0.0406 1.87163,0.0609 0.77214,-1.09615 1.54424,-2.19224 2.31638,-3.2884 0.67093,-0.5722 1.34181,-1.14435 2.01273,-1.71654 -0.95353,-0.93838 -1.90705,-1.87675 -2.86055,-2.8151 -3.26884,-3.3371 -6.53763,-6.67417 -9.80653,-10.01134 z" sodipodi:nodetypes="cccccccccccc" transform="matrix(0.793144,0,0,0.78845239,156.108,-11.734582)"/><path style="fill:#d5bb72;fill-rule:evenodd;stroke:#000000;stroke-width:1.00157;paint-order:stroke fill markers" d="m 404.42622,296.06521 -37.95966,37.95966 a 3.7801309,3.7801309 1.252306e-5 0 1 -5.34592,0 l -6.09213,-6.09214 a 3.7801343,3.7801343 90.000013 0 1 0,-5.34592 l 37.95965,-37.95965 a 3.7801343,3.7801343 179.99999 0 1 5.34592,0 l 6.09214,6.09213 a 3.7801309,3.7801309 89.999987 0 1 0,5.34592 z" id="path1" sodipodi:nodetypes="ccccc" inkscape:path-effect="#path-effect8" inkscape:original-d="M 407.09918,293.39225 363.7936,336.69783 352.35555,325.25977 395.66112,281.9542 Z"/><path style="opacity:1;fill:#d5bb72;fill-rule:evenodd;stroke:#000000;stroke-width:1.00157;paint-order:stroke fill markers" d="m 372.91753,252.72701 c -2.47722,-0.80535 -4.99348,-1.59842 -4.65435,-2.56282 0.33914,-0.9644 3.48195,-1.95326 7.60055,-2.71785 4.11859,-0.76459 9.08304,-1.26409 15.03156,-0.54537 5.94852,0.71872 12.88053,2.6556 17.52917,4.56196 4.64865,1.90636 7.01369,3.78208 8.48168,4.63841 1.46799,0.85632 2.03887,0.69322 3.01754,-0.24468 0.97867,-0.9379 2.36507,-2.65051 3.48646,-3.46606 1.12138,-0.81554 1.97769,-0.73399 4.46515,1.36608 2.48746,2.10008 6.6059,6.21851 8.72632,8.56322 2.12042,2.3447 2.24276,2.91557 1.32525,3.93502 -0.91751,1.01945 -2.87479,2.48741 -3.81267,3.56802 -0.93787,1.08061 -0.85632,1.7738 0.32624,4.11344 1.18257,2.33965 3.46601,6.32547 4.99519,11.15769 1.52919,4.83222 2.30394,10.51035 2.46704,15.944 0.16311,5.43364 -0.28542,10.62234 -0.83083,14.21083 -0.54541,3.58848 -1.18762,5.5763 -1.89105,5.65786 -0.70342,0.0815 -1.46797,-1.74316 -2.47213,-4.21025 -1.00417,-2.46708 -2.24785,-5.57629 -3.72095,-8.90988 -1.4731,-3.33359 -3.17549,-6.89128 -4.98502,-9.89357 -1.80953,-3.00229 -3.726,-5.44884 -5.28576,-7.45206 -1.55976,-2.00323 -2.76263,-3.56288 -3.70564,-4.23063 -0.94301,-0.66776 -1.62601,-0.44349 -2.76269,0.74927 -1.13669,1.19276 -2.72693,3.35386 -3.83815,4.29686 -1.11121,0.94301 -1.74323,0.66777 -4.15424,-1.46799 -2.41101,-2.13575 -6.60073,-6.13179 -8.67021,-8.64474 -2.06949,-2.51295 -2.01852,-3.54255 -1.03475,-4.7506 0.98377,-1.20805 2.90027,-2.59445 3.89932,-3.55272 0.99904,-0.95828 1.0806,-1.48837 -0.43839,-3.06343 -1.51899,-1.57505 -4.63833,-4.19489 -8.56323,-6.81489 -3.92491,-2.62 -8.6549,-5.23984 -12.18731,-6.94233 -3.53241,-1.70249 -5.86687,-2.48744 -8.3441,-3.29279 z" id="path2" inkscape:path-effect="#path-effect7" inkscape:original-d="m 373.06026,252.7474 c -2.61995,-0.82575 -5.13621,-1.61881 -7.85984,-2.47723 3.4019,-1.07038 6.54471,-2.05924 9.81716,-3.08889 4.96474,-0.49953 9.92919,-0.99903 14.89393,-1.49856 6.9323,1.93697 13.86431,3.87385 20.79647,5.81078 2.36513,1.87579 4.73017,3.75151 7.09526,5.62727 0.57089,-0.16311 1.14177,-0.32622 1.71265,-0.48932 1.38646,-1.71269 2.77286,-3.4253 4.15929,-5.13795 0.85634,0.0816 1.71265,0.1631 2.56898,0.24466 4.11859,4.1186 8.23703,8.23703 12.35554,12.35555 0.12234,0.57089 0.24467,1.14176 0.367,1.71265 -1.95735,1.46801 -3.91463,2.93597 -5.87194,4.40395 0.0816,0.69323 0.16311,1.38643 0.24466,2.07965 2.28358,3.98607 4.56702,7.97189 6.8506,11.95796 0.77479,5.67837 1.54954,11.3565 2.32431,17.03476 -0.44856,5.18903 -0.89709,10.37773 -1.34565,15.56676 -0.64226,1.98794 -1.28448,3.97576 -1.92673,5.9637 -0.76459,-1.82483 -1.52914,-3.64954 -2.29373,-5.47437 -1.24374,-3.10934 -2.48742,-6.21855 -3.73113,-9.32783 -1.70249,-3.5579 -3.40488,-7.11559 -5.10736,-10.67348 -1.91658,-2.44669 -3.83305,-4.89324 -5.74962,-7.33992 -1.20295,-1.55977 -2.40582,-3.11942 -3.60879,-4.67921 -0.68305,0.22428 -1.36605,0.44855 -2.04907,0.67283 -1.59035,2.16124 -3.18059,4.32234 -4.77096,6.4836 -0.63206,-0.27525 -1.26408,-0.55049 -1.89614,-0.82574 -4.18996,-3.99626 -8.37968,-7.9923 -12.56962,-11.98855 0.051,-1.02965 0.10194,-2.05925 0.15291,-3.08889 1.91657,-1.38646 3.83307,-2.77286 5.74961,-4.15929 0.0816,-0.53011 0.16311,-1.06021 0.24466,-1.59032 -3.11953,-2.62 -6.23887,-5.23984 -9.3584,-7.85984 -4.73028,-2.62 -9.46027,-5.23984 -14.19054,-7.85984 -2.33455,-0.78498 -4.66901,-1.56993 -7.00351,-2.35489 z" sodipodi:nodetypes="cccccccccccccccccccccccccccccccc"/><path style="opacity:1;fill:#d5bb72;fill-rule:evenodd;stroke:#000000;stroke-width:1.00157;paint-order:stroke fill markers" d="m 352.59512,330.56339 c -1.43233,-1.27177 -1.93693,-1.20041 -2.46704,-0.98887 -0.53011,0.21153 -1.08569,0.56323 -1.73304,1.11373 -0.64735,0.55051 -1.38643,1.29978 -1.7993,1.87067 -0.41288,0.57089 -0.49952,0.96334 0.77735,2.5384 1.27687,1.57506 3.91715,4.33257 5.47434,5.87192 1.55719,1.53935 2.03121,1.86046 2.52564,1.87575 0.49444,0.0153 1.00924,-0.27524 1.62091,-0.85887 0.61166,-0.58363 1.32015,-1.46032 1.85536,-2.07964 0.53522,-0.61931 0.8971,-0.9812 0.85123,-1.41191 -0.0459,-0.43072 -0.49952,-0.93024 -1.89509,-2.47496 -1.39557,-1.54472 -3.77803,-4.18446 -5.21036,-5.45622 z" id="path8" inkscape:path-effect="#path-effect9" inkscape:original-d="m 351.66742,329.22026 c -0.50462,0.0714 -1.00923,0.14272 -1.51385,0.21408 -0.5556,0.35171 -1.11118,0.70341 -1.66678,1.05512 -0.7391,0.7493 -1.47818,1.49857 -2.21727,2.24785 -0.0867,0.39249 -0.1733,0.78495 -0.25996,1.17744 2.6404,2.75763 5.28068,5.51514 7.92101,8.27271 0.47405,0.32113 0.94807,0.64224 1.42211,0.96337 0.51483,-0.29054 1.02963,-0.58108 1.54445,-0.87162 0.70851,-0.87672 1.417,-1.75341 2.12552,-2.63014 0.36191,-0.3619 0.72379,-0.72379 1.0857,-1.08569 -0.45366,-0.49953 -0.9073,-0.99905 -1.36095,-1.49857 -2.33749,-2.58992 -4.71995,-5.22966 -7.07998,-7.84455 z" sodipodi:nodetypes="cccccccccccc"/></g></svg>