<?xml version="1.0" encoding="UTF-8" standalone="no"?>
<!-- Created with Inkscape (http://www.inkscape.org/) -->
<svg width="30.691666mm" height="30.691666mm" viewBox="0 0 116 116" version="1.1" id="svg1" xml:space="preserve" inkscape:version="1.4.2 (f4327f4, 2025-05-13)" sodipodi:docname="LeatherWorking.svg" xmlns:inkscape="http://www.inkscape.org/namespaces/inkscape" xmlns:sodipodi="http://sodipodi.sourceforge.net/DTD/sodipodi-0.dtd" xmlns="http://www.w3.org/2000/svg" xmlns:svg="http://www.w3.org/2000/svg"><sodipodi:namedview id="namedview1" pagecolor="#505050" bordercolor="#eeeeee" borderopacity="1" inkscape:showpageshadow="0" inkscape:pageopacity="0" inkscape:pagecheckerboard="0" inkscape:deskcolor="#505050" inkscape:document-units="mm" inkscape:zoom="5.6568543" inkscape:cx="28.991378" inkscape:cy="49.585863" inkscape:window-width="2560" inkscape:window-height="1369" inkscape:window-x="2552" inkscape:window-y="-8" inkscape:window-maximized="1" inkscape:current-layer="svg1"/><defs id="defs1"><inkscape:path-effect effect="bspline" id="path-effect34" is_visible="true" lpeversion="1.3" weight="33.333333" steps="2" helper_size="0" apply_no_weight="true" apply_with_weight="true" only_selected="false" uniform="false"/><inkscape:path-effect effect="bspline" id="path-effect33" is_visible="true" lpeversion="1.3" weight="33.333333" steps="2" helper_size="0" apply_no_weight="true" apply_with_weight="true" only_selected="false" uniform="false"/><inkscape:path-effect effect="bspline" id="path-effect1" is_visible="true" lpeversion="1.3" weight="33.333333" steps="2" helper_size="0" apply_no_weight="true" apply_with_weight="true" only_selected="false" uniform="false"/><inkscape:path-effect effect="bspline" id="path-effect32" is_visible="true" lpeversion="1.3" weight="33.333333" steps="2" helper_size="0" apply_no_weight="true" apply_with_weight="true" only_selected="false" uniform="false"/><inkscape:path-effect effect="bspline" id="path-effect31" is_visible="true" lpeversion="1.3" weight="33.333333" steps="2" helper_size="0" apply_no_weight="true" apply_with_weight="true" only_selected="false" uniform="false"/><inkscape:path-effect effect="fillet_chamfer" id="path-effect30" is_visible="true" lpeversion="1" nodesatellites_param="F,0,0,1,0,0,0,1 @ F,0,0,1,0,1.0387663,0,1 @ F,0,1,1,0,1.0387663,0,1 @ F,0,0,1,0,0,0,1" radius="0" unit="px" method="auto" mode="F" chamfer_steps="1" flexible="false" use_knot_distance="true" apply_no_radius="true" apply_with_radius="true" only_selected="false" hide_knots="false"/><inkscape:path-effect effect="fillet_chamfer" id="path-effect29" is_visible="true" lpeversion="1" nodesatellites_param="F,0,1,1,0,0.7555725,0,1 @ F,0,1,1,0,0.7555725,0,1 @ F,0,1,1,0,0.7555725,0,1 @ F,0,0,1,0,0.7555725,0,1" radius="0" unit="px" method="auto" mode="F" chamfer_steps="1" flexible="false" use_knot_distance="true" apply_no_radius="true" apply_with_radius="true" only_selected="false" hide_knots="false"/><inkscape:path-effect effect="fillet_chamfer" id="path-effect28" is_visible="true" lpeversion="1" nodesatellites_param="F,0,0,1,0,0,0,1 @ F,0,0,1,0,0,0,1 @ F,0,0,1,0,0,0,1 @ F,0,0,1,0,0,0,1" radius="0" unit="px" method="auto" mode="F" chamfer_steps="1" flexible="false" use_knot_distance="true" apply_no_radius="true" apply_with_radius="true" only_selected="false" hide_knots="false"/><inkscape:path-effect effect="bspline" id="path-effect27" is_visible="true" lpeversion="1.3" weight="33.333333" steps="2" helper_size="0" apply_no_weight="true" apply_with_weight="true" only_selected="false" uniform="false"/><inkscape:path-effect effect="bspline" id="path-effect26" is_visible="true" lpeversion="1.3" weight="33.333333" steps="2" helper_size="0" apply_no_weight="true" apply_with_weight="true" only_selected="false" uniform="false"/><inkscape:path-effect effect="bspline" id="path-effect25" is_visible="true" lpeversion="1.3" weight="33.333333" steps="2" helper_size="0" apply_no_weight="true" apply_with_weight="true" only_selected="false" uniform="false"/><inkscape:path-effect effect="bspline" id="path-effect24" is_visible="true" lpeversion="1.3" weight="33.333333" steps="2" helper_size="0" apply_no_weight="true" apply_with_weight="true" only_selected="false" uniform="false"/><inkscape:path-effect effect="bspline" id="path-effect23" is_visible="true" lpeversion="1.3" weight="33.333333" steps="2" helper_size="0" apply_no_weight="true" apply_with_weight="true" only_selected="false" uniform="false"/><inkscape:path-effect effect="bspline" id="path-effect22" is_visible="true" lpeversion="1.3" weight="33.333333" steps="2" helper_size="0" apply_no_weight="true" apply_with_weight="true" only_selected="false" uniform="false"/><inkscape:path-effect effect="bspline" id="path-effect21" is_visible="true" lpeversion="1.3" weight="33.333333" steps="2" helper_size="0" apply_no_weight="true" apply_with_weight="true" only_selected="false" uniform="false"/><inkscape:path-effect effect="bspline" id="path-effect20" is_visible="true" lpeversion="1.3" weight="33.333333" steps="2" helper_size="0" apply_no_weight="true" apply_with_weight="true" only_selected="false" uniform="false"/><inkscape:path-effect effect="bspline" id="path-effect19" is_visible="true" lpeversion="1.3" weight="33.333333" steps="2" helper_size="0" apply_no_weight="true" apply_with_weight="true" only_selected="false" uniform="false"/><inkscape:path-effect effect="bspline" id="path-effect18" is_visible="true" lpeversion="1.3" weight="33.333333" steps="2" helper_size="0" apply_no_weight="true" apply_with_weight="true" only_selected="false" uniform="false"/><inkscape:path-effect effect="bspline" id="path-effect17" is_visible="true" lpeversion="1.3" weight="33.333333" steps="2" helper_size="0" apply_no_weight="true" apply_with_weight="true" only_selected="false" uniform="false"/><inkscape:path-effect effect="bspline" id="path-effect16" is_visible="true" lpeversion="1.3" weight="33.333333" steps="2" helper_size="0" apply_no_weight="true" apply_with_weight="true" only_selected="false" uniform="false"/><inkscape:path-effect effect="bspline" id="path-effect15" is_visible="true" lpeversion="1.3" weight="33.333333" steps="2" helper_size="0" apply_no_weight="true" apply_with_weight="true" only_selected="false" uniform="false"/><inkscape:path-effect effect="bspline" id="path-effect14" is_visible="true" lpeversion="1.3" weight="33.333333" steps="2" helper_size="0" apply_no_weight="true" apply_with_weight="true" only_selected="false" uniform="false"/><inkscape:path-effect effect="bspline" id="path-effect13" is_visible="true" lpeversion="1.3" weight="33.333333" steps="2" helper_size="0" apply_no_weight="true" apply_with_weight="true" only_selected="false" uniform="false"/><inkscape:path-effect effect="bspline" id="path-effect12" is_visible="true" lpeversion="1.3" weight="33.333333" steps="2" helper_size="0" apply_no_weight="true" apply_with_weight="true" only_selected="false" uniform="false"/><inkscape:path-effect effect="bspline" id="path-effect11" is_visible="true" lpeversion="1.3" weight="33.333333" steps="2" helper_size="0" apply_no_weight="true" apply_with_weight="true" only_selected="false" uniform="false"/><inkscape:path-effect effect="bspline" id="path-effect10" is_visible="true" lpeversion="1.3" weight="33.333333" steps="2" helper_size="0" apply_no_weight="true" apply_with_weight="true" only_selected="false" uniform="false"/><inkscape:path-effect effect="fillet_chamfer" id="path-effect9" is_visible="true" lpeversion="1" nodesatellites_param="F,0,0,1,0,0,0,1 @ F,0,0,1,0,0,0,1 @ F,0,0,1,0,0,0,1 @ F,0,0,1,0,0,0,1" radius="0" unit="px" method="auto" mode="F" chamfer_steps="1" flexible="false" use_knot_distance="true" apply_no_radius="true" apply_with_radius="true" only_selected="false" hide_knots="false"/><inkscape:path-effect effect="fillet_chamfer" id="path-effect8" is_visible="true" lpeversion="1" nodesatellites_param="F,0,0,1,0,0.89957478,0,1 @ F,0,0,1,0,0.65324412,0,1 @ F,0,0,1,0,0,0,1 @ F,0,0,1,0,0.63765357,0,1" radius="0" unit="px" method="auto" mode="F" chamfer_steps="1" flexible="false" use_knot_distance="true" apply_no_radius="true" apply_with_radius="true" only_selected="false" hide_knots="false"/><inkscape:path-effect effect="bspline" id="path-effect7" is_visible="true" lpeversion="1.3" weight="33.333333" steps="2" helper_size="0" apply_no_weight="true" apply_with_weight="true" only_selected="false" uniform="false"/><inkscape:path-effect effect="bspline" id="path-effect6" is_visible="true" lpeversion="1.3" weight="33.333333" steps="2" helper_size="0" apply_no_weight="true" apply_with_weight="true" only_selected="false" uniform="false"/><inkscape:path-effect effect="bspline" id="path-effect5" is_visible="true" lpeversion="1.3" weight="33.333333" steps="2" helper_size="0" apply_no_weight="true" apply_with_weight="true" only_selected="false" uniform="false"/><inkscape:path-effect effect="bspline" id="path-effect4" is_visible="true" lpeversion="1.3" weight="33.333333" steps="2" helper_size="0" apply_no_weight="true" apply_with_weight="true" only_selected="false" uniform="false"/><inkscape:path-effect effect="bspline" id="path-effect3" is_visible="true" lpeversion="1.3" weight="33.333333" steps="2" helper_size="0" apply_no_weight="true" apply_with_weight="true" only_selected="false" uniform="false"/><inkscape:path-effect effect="bspline" id="path-effect2" is_visible="true" lpeversion="1.3" weight="33.333333" steps="2" helper_size="0" apply_no_weight="true" apply_with_weight="true" only_selected="false" uniform="false"/><inkscape:path-effect effect="bspline" id="path-effect14-7" is_visible="true" lpeversion="1.3" weight="33.333333" steps="2" helper_size="0" apply_no_weight="true" apply_with_weight="true" only_selected="false" uniform="false"/></defs><g inkscape:label="Layer 1" inkscape:groupmode="layer" id="layer1" transform="translate(-339,-503)"/><path id="path1" style="opacity:1;fill:#d5bb72;fill-rule:evenodd;stroke:#000000;stroke-width:1.00157;paint-order:stroke fill markers" d="M 63.109379 13.125001 C 60.229116 12.885418 54.676438 12.864579 51.822269 13.140626 C 48.9681 13.416673 48.811856 13.988909 48.548831 15.486329 C 48.285807 16.983749 47.916691 19.405562 46.820316 21.36133 C 45.72394 23.317097 43.900435 24.80727 41.822268 26.000002 C 39.744102 27.192734 37.412172 28.088535 34.373049 28.515627 C 31.333926 28.942719 27.587892 28.900392 24.67383 28.751955 C 21.759768 28.603518 19.677088 28.348958 18.453126 28.335939 C 17.229164 28.322921 16.864585 28.551402 16.640626 30.275393 C 16.416667 31.999383 16.33268 35.219401 16.447267 36.927737 C 16.561853 38.636073 16.874332 38.833982 17.947267 39.162112 C 19.020202 39.490242 20.853503 39.947897 22.447267 41.281253 C 24.041031 42.614608 25.395176 44.822244 26.462892 47.189456 C 27.530609 49.556669 28.313154 52.083931 28.240236 54.943363 C 28.167318 57.802795 27.238964 60.994746 25.759767 63.476567 C 24.280571 65.958387 22.25066 67.728515 20.896486 68.85352 C 19.542312 69.978525 18.864585 70.458986 18.515626 70.865239 C 18.166668 71.271492 18.14517 71.603488 18.791017 73.41602 C 19.436863 75.228553 20.750649 78.520839 21.568361 80.156255 C 22.386072 81.791672 22.708294 81.770843 24.882814 81.531255 C 27.057334 81.291667 31.08327 80.833325 34.359377 81.531255 C 37.635484 82.229186 40.161448 84.082669 42.05469 85.931646 C 43.947932 87.780623 45.207667 89.624328 46.744144 91.884772 C 48.28062 94.145215 50.094403 96.82227 51.083988 98.259772 C 52.073573 99.697275 52.239586 99.89649 54.078129 100.00587 C 55.916671 100.11524 59.427084 100.13543 61.320317 100.02344 C 63.213549 99.911461 63.488928 99.66734 63.923832 98.943366 C 64.358737 98.219392 64.95311 97.015014 65.953129 95.306647 C 66.953149 93.59828 68.359998 91.386112 69.998051 89.45899 C 71.636105 87.531868 73.504541 85.889988 75.501958 84.642584 C 77.499376 83.395179 79.625642 82.541674 81.39649 82.01563 C 83.167337 81.489587 84.583319 81.291018 86.296881 81.322271 C 88.010443 81.353524 90.020166 81.615239 91.181647 81.630865 C 92.343127 81.64649 92.656245 81.417352 93.343756 79.83399 C 94.031267 78.250627 95.093105 75.31251 95.619147 73.593755 C 96.145188 71.875 96.136091 71.375671 95.248053 70.380864 C 94.360015 69.386057 92.59313 67.895864 91.322272 66.546879 C 90.051413 65.197894 89.276054 63.990257 88.578131 62.451176 C 87.880208 60.912095 87.261078 59.041058 87.037115 57.134769 C 86.813152 55.228481 86.983723 53.286497 87.298834 51.523441 C 87.613944 49.760385 88.07226 48.17645 88.869146 46.666019 C 89.666033 45.155588 90.802077 43.718111 92.000006 42.525393 C 93.197936 41.332675 94.45898 40.384774 95.615241 39.650393 C 96.771501 38.916013 97.822272 38.396489 98.353522 38.021487 C 98.884773 37.646484 98.89585 37.416047 98.390631 35.869143 C 97.885413 34.322239 96.865243 31.458337 96.224616 29.953127 C 95.583988 28.447917 95.323594 28.302734 94.154303 28.365236 C 92.985012 28.427739 90.905667 28.698572 87.775396 28.583986 C 84.645126 28.469401 80.462917 27.969414 77.283208 27.138674 C 74.103499 26.307933 71.927118 25.145213 70.42188 23.712892 C 68.916641 22.280571 68.08269 20.578142 67.525395 18.960939 C 66.9681 17.343736 66.688157 15.813156 66.443364 14.81836 C 66.19857 13.823564 65.989643 13.364584 63.109379 13.125001 z M 57.587894 26.394533 C 58.137691 26.41919 58.723631 26.850584 59.724613 27.744142 C 60.792328 28.697272 62.333322 30.177722 64.375004 31.599611 C 66.416686 33.021501 68.958964 34.385406 71.740239 35.312502 C 74.521514 36.239599 77.541642 36.729815 79.437505 37.208987 C 81.333369 37.688158 82.103513 38.156899 82.275396 38.818362 C 82.447279 39.479825 82.021494 40.333979 81.349615 41.818362 C 80.677735 43.302746 79.75978 45.415997 78.837896 47.337894 C 77.916012 49.25979 76.989598 50.988918 76.64063 53.025394 C 76.291663 55.06187 76.520836 57.40623 77.48438 59.984379 C 78.447924 62.562528 80.145171 65.374976 81.134771 67.250004 C 82.124371 69.125033 82.405602 70.061844 82.447271 70.75977 C 82.488941 71.457696 82.291674 71.916016 81.60938 72.38477 C 80.927087 72.853525 79.760433 73.333984 77.500005 74.162114 C 75.239577 74.990244 71.884804 76.16666 69.10352 77.54688 C 66.322236 78.9271 64.11461 80.510406 62.484379 81.92188 C 60.854148 83.333355 59.802101 84.572906 59.093754 85.375006 C 58.385406 86.177105 58.020844 86.541022 57.687504 86.509771 C 57.354164 86.478521 57.052096 86.052102 56.640629 85.414068 C 56.229162 84.776034 55.708999 83.926452 55.146488 83.197271 C 54.583977 82.46809 53.978519 81.858729 53.197269 81.236333 C 52.416019 80.613938 51.458346 79.979829 50.031253 79.08399 C 48.60416 78.18815 46.708355 77.031266 44.687503 76.14063 C 42.666651 75.249994 40.520858 74.625011 38.406253 74.01563 C 36.291647 73.406249 34.208356 72.813162 32.859377 72.443364 C 31.510398 72.073567 30.896493 71.927089 30.708986 71.67188 C 30.52148 71.41667 30.759765 71.051441 31.587893 69.744145 C 32.41602 68.43685 33.833321 66.187527 35.046877 63.703129 C 36.260433 61.218732 37.271477 58.49938 37.599612 55.728519 C 37.927747 52.957658 37.572272 50.135448 36.681643 47.437503 C 35.791014 44.739558 34.363949 42.167346 33.416018 40.458987 C 32.468087 38.750628 32.000658 37.906261 32.115236 37.390627 C 32.229815 36.874994 32.926427 36.688155 34.462893 36.458987 C 35.999358 36.229818 38.37563 35.958989 40.849612 35.380862 C 43.323594 34.802734 45.896462 33.917329 48.396488 32.537112 C 50.896513 31.156895 53.322245 29.281922 54.822269 28.099611 C 56.322294 26.917301 56.89518 26.427741 57.478519 26.396486 C 57.514978 26.394533 57.551241 26.392889 57.587894 26.394533 z "/><path style="opacity:1;fill:#d5bb72;fill-rule:evenodd;stroke:#000000;stroke-width:1.00157;paint-order:stroke fill markers" d="m 41.328128,39.10417 c -0.765625,0.145833 -0.765625,0.145833 -0.765625,0.145833 -1.1875,0.0625 -2.375,0.125 -2.781247,0.531258 -0.406246,0.406257 -0.03125,1.156242 0.677091,2.552096 0.708344,1.395854 1.749989,3.437479 2.583329,5.739588 0.833339,2.302109 1.458327,4.864558 1.229149,7.562504 -0.229177,2.697945 -1.312489,5.531222 -2.322915,7.937492 -1.010426,2.406269 -1.947907,4.385396 -2.499993,5.572901 -0.552085,1.187504 -0.718748,1.58333 -0.531243,1.80208 0.187506,0.218751 0.729161,0.260416 2.406273,0.489587 1.677112,0.229171 4.489556,0.645829 7.010412,1.489592 2.520855,0.843763 4.749977,2.11457 6.364571,3.447918 1.614594,1.333347 2.614574,2.729153 3.343746,3.604156 0.729171,0.875004 1.187495,1.229163 1.579425,1.173169 0.39193,-0.05599 0.717445,-0.522131 1.920591,-1.964863 1.203146,-1.442732 3.283833,-3.861955 5.584639,-5.425764 2.300807,-1.563809 4.821591,-2.272129 6.899732,-2.61067 2.078141,-0.338541 3.713525,-0.307292 4.770821,-0.442712 1.057297,-0.135419 1.536454,-0.437497 1.421864,-0.885419 -0.11459,-0.447923 -0.82291,-1.041662 -1.880215,-2.479185 -1.057306,-1.437523 -2.463528,-3.718727 -3.067693,-6.880226 -0.604164,-3.161498 -0.406252,-7.203084 0.484389,-10.604154 0.890641,-3.40107 2.473943,-6.161431 3.380195,-7.755186 0.906252,-1.593754 1.135414,-2.020829 1.067702,-2.281246 -0.06771,-0.260418 -0.432288,-0.354166 -1.718768,-0.463542 -1.28648,-0.109376 -3.49477,-0.234374 -5.932297,-0.781259 -2.437527,-0.546885 -5.10414,-1.515616 -7.062486,-2.718755 -1.958346,-1.20314 -3.208321,-2.640611 -3.973949,-3.604158 -0.765628,-0.963546 -1.046872,-1.45312 -1.447919,-1.671869 -0.401047,-0.21875 -0.92187,-0.166667 -1.989595,0.625015 -1.067724,0.791682 -2.682275,2.322901 -4.593756,3.64062 -1.91148,1.31772 -4.11977,2.421865 -5.989577,3.119785 -1.869807,0.69792 -3.401026,0.98958 -4.166651,1.135414 z" id="path33" inkscape:path-effect="#path-effect34" inkscape:original-d="m 40.562503,39.250003 c 0,0 0,0 0,0 0,0 -2.375,0.125 -3.562501,0.1875 0.375008,0.750015 0.75,1.5 1.125001,2.25 1.041688,2.041708 2.083333,4.083333 3.125,6.125 0.625013,2.562551 1.25,5.125 1.875,7.687501 -1.083355,2.83339 -2.166667,5.666667 -3.25,8.5 -0.937519,1.979206 -1.875001,3.958333 -2.812501,5.937501 -0.16667,0.395841 -0.333333,0.791667 -0.5,1.1875 0.541678,0.04167 1.083333,0.08333 1.625001,0.125 2.812556,0.416675 5.625,0.833333 8.4375,1.25 2.229211,1.270859 4.458333,2.541667 6.687501,3.8125 1.00002,1.395861 2,2.791667 3,4.1875 0.458343,0.354174 0.916667,0.708333 1.375,1.0625 0.325527,-0.466155 0.651042,-0.932292 0.976563,-1.398437 2.08077,-2.41932 4.161458,-4.838542 6.242187,-7.257813 2.520884,-0.708347 5.041668,-1.416667 7.562501,-2.125 1.635449,0.03125 3.270833,0.0625 4.90625,0.09375 0.479176,-0.302089 0.958333,-0.604167 1.4375,-0.90625 -0.708347,-0.593762 -1.416667,-1.1875 -2.125,-1.781251 -1.406278,-2.281296 -2.8125,-4.5625 -4.21875,-6.84375 0.197921,-4.041747 0.395833,-8.083333 0.59375,-12.125001 1.583365,-2.760472 3.166667,-5.520833 4.75,-8.28125 0.229171,-0.427092 0.458333,-0.854167 0.6875,-1.28125 -0.364591,-0.09375 -0.729167,-0.1875 -1.09375,-0.28125 -2.208377,-0.125002 -4.416667,-0.25 -6.625,-0.375 -2.666721,-0.968769 -5.333334,-1.937501 -8.000001,-2.906251 -1.250025,-1.437529 -2.5,-2.875 -3.75,-4.3125 -0.281256,-0.489593 -0.5625,-0.979167 -0.84375,-1.46875 -0.520844,0.05208 -1.041667,0.104167 -1.5625,0.15625 -1.614616,1.531281 -3.229167,3.0625 -4.843751,4.59375 -2.208377,1.104189 -4.416667,2.208333 -6.625,3.312501 -1.531281,0.291673 -3.0625,0.583333 -4.59375,0.875 z"/></svg>