<?xml version="1.0" encoding="UTF-8" standalone="no"?>
<!-- Created with Inkscape (http://www.inkscape.org/) -->
<svg width="30.691666mm" height="30.691666mm" viewBox="0 0 116 116" version="1.1" id="svg1" xml:space="preserve" inkscape:version="1.4.2 (f4327f4, 2025-05-13)" sodipodi:docname="Foraging.svg" xmlns:inkscape="http://www.inkscape.org/namespaces/inkscape" xmlns:sodipodi="http://sodipodi.sourceforge.net/DTD/sodipodi-0.dtd" xmlns="http://www.w3.org/2000/svg" xmlns:svg="http://www.w3.org/2000/svg"><sodipodi:namedview id="namedview1" pagecolor="#505050" bordercolor="#eeeeee" borderopacity="1" inkscape:showpageshadow="0" inkscape:pageopacity="0" inkscape:pagecheckerboard="0" inkscape:deskcolor="#505050" inkscape:document-units="mm" inkscape:zoom="5.6568543" inkscape:cx="18.561553" inkscape:cy="55.59627" inkscape:window-width="2560" inkscape:window-height="1369" inkscape:window-x="2552" inkscape:window-y="-8" inkscape:window-maximized="1" inkscape:current-layer="layer1"/><defs id="defs1"><inkscape:path-effect effect="bspline" id="path-effect12" is_visible="true" lpeversion="1.3" weight="33.333333" steps="2" helper_size="0" apply_no_weight="true" apply_with_weight="true" only_selected="false" uniform="false"/><inkscape:path-effect effect="bspline" id="path-effect11" is_visible="true" lpeversion="1.3" weight="33.333333" steps="2" helper_size="0" apply_no_weight="true" apply_with_weight="true" only_selected="false" uniform="false"/><inkscape:path-effect effect="bspline" id="path-effect10" is_visible="true" lpeversion="1.3" weight="33.333333" steps="2" helper_size="0" apply_no_weight="true" apply_with_weight="true" only_selected="false" uniform="false"/><inkscape:path-effect effect="bspline" id="path-effect9" is_visible="true" lpeversion="1.3" weight="33.333333" steps="2" helper_size="0" apply_no_weight="true" apply_with_weight="true" only_selected="false" uniform="false"/><inkscape:path-effect effect="bspline" id="path-effect8" is_visible="true" lpeversion="1.3" weight="33.333333" steps="2" helper_size="0" apply_no_weight="true" apply_with_weight="true" only_selected="false" uniform="false"/><inkscape:path-effect effect="bspline" id="path-effect7" is_visible="true" lpeversion="1.3" weight="33.333333" steps="2" helper_size="0" apply_no_weight="true" apply_with_weight="true" only_selected="false" uniform="false"/><inkscape:path-effect effect="bspline" id="path-effect6" is_visible="true" lpeversion="1.3" weight="33.333333" steps="2" helper_size="0" apply_no_weight="true" apply_with_weight="true" only_selected="false" uniform="false"/><inkscape:path-effect effect="bspline" id="path-effect5" is_visible="true" lpeversion="1.3" weight="33.333333" steps="2" helper_size="0" apply_no_weight="true" apply_with_weight="true" only_selected="false" uniform="false"/><inkscape:path-effect effect="bspline" id="path-effect4" is_visible="true" lpeversion="1.3" weight="33.333333" steps="2" helper_size="0" apply_no_weight="true" apply_with_weight="true" only_selected="false" uniform="false"/><inkscape:path-effect effect="bspline" id="path-effect3" is_visible="true" lpeversion="1.3" weight="33.333333" steps="2" helper_size="0" apply_no_weight="true" apply_with_weight="true" only_selected="false" uniform="false"/><inkscape:path-effect effect="bspline" id="path-effect2" is_visible="true" lpeversion="1.3" weight="33.333333" steps="2" helper_size="0" apply_no_weight="true" apply_with_weight="true" only_selected="false" uniform="false"/><inkscape:path-effect effect="bspline" id="path-effect1" is_visible="true" lpeversion="1.3" weight="33.333333" steps="2" helper_size="0" apply_no_weight="true" apply_with_weight="true" only_selected="false" uniform="false"/><inkscape:path-effect effect="bspline" id="path-effect1-2" is_visible="true" lpeversion="1.3" weight="33.333333" steps="2" helper_size="0" apply_no_weight="true" apply_with_weight="true" only_selected="false" uniform="false"/><inkscape:path-effect effect="bspline" id="path-effect1-2-1" is_visible="true" lpeversion="1.3" weight="33.333333" steps="2" helper_size="0" apply_no_weight="true" apply_with_weight="true" only_selected="false" uniform="false"/></defs><g inkscape:label="Layer 1" inkscape:groupmode="layer" id="layer1" transform="translate(-339,-503)"><path id="path1" style="opacity:1;fill:#d5bb72;fill-rule:evenodd;stroke:#000000;stroke-width:1.00157;paint-order:stroke fill markers" d="m 374.08985,558.04688 c -3.06956,0.13973 -6.04244,1.00731 -8.9629,2.4668 -2.92045,1.45948 -5.78894,3.51072 -8.05078,6.17968 -2.26183,2.66896 -3.91641,5.95541 -4.61133,10.02344 -0.69491,4.06804 -0.42991,8.9156 1.02735,12.98438 1.45726,4.06877 4.10603,7.358 6.95312,9.8789 2.8471,2.52091 5.89205,4.27374 9.32422,5.12891 3.43217,0.85518 7.25163,0.81327 11.3711,-0.44531 4.11947,-1.25858 8.53852,-3.73264 10.88086,-5.25 2.34233,-1.51736 3.73467,-1.857 3.16015,-3.27122 -0.57452,-1.41422 -2.38695,-3.3961 -3.18298,-6.09313 -0.76966,-2.60768 -1.43829,-5.40309 -1.1667,-9.55868 0.25318,-3.874 2.07675,-7.83804 2.93654,-10.66456 0.85979,-2.82653 -0.37372,-3.99974 -1.19037,-4.58038 -0.81665,-0.58064 -1.81314,-1.14281 -3.35742,-2.09961 -1.54428,-0.95681 -3.63623,-2.30849 -6.26563,-3.2793 -2.6294,-0.97081 -5.79567,-1.55966 -8.86523,-1.41992 z M 371.25,568.5625 c 2.41625,0 4.375,1.93077 4.375,4.3125 0,2.38173 -1.95875,4.3125 -4.375,4.3125 -2.41625,0 -4.375,-1.93077 -4.375,-4.3125 0,-2.38173 1.95875,-4.3125 4.375,-4.3125 z" sodipodi:nodetypes="ssssssssssssssssssssss"/><path id="path9" style="opacity:1;fill:#d5bb72;fill-rule:evenodd;stroke:#000000;stroke-width:1.00157;paint-order:stroke fill markers" d="m 394.92579,529.09961 c -1.60756,0.0497 -3.22825,0.26241 -4.83399,0.66016 -3.21147,0.79549 -6.48934,2.17222 -9.24414,4.88281 -2.7548,2.71059 -5.39234,6.53719 -6.51953,10.04688 -1.2522,3.44718 -1.47163,6.36602 -1.48637,7.97177 -0.0147,1.60575 -0.49305,3.22615 0.008,3.46185 1.0312,-0.0736 2.62047,-0.0737 4.67183,-0.0332 2.05137,0.0405 4.2327,0.47402 6.19202,1.26953 1.95933,0.79552 3.34304,1.37837 4.93774,2.30278 1.52046,0.88139 4.10652,2.89731 5.0346,3.69282 0.92809,0.79551 1.90891,1.69539 2.60866,2.01949 0.72184,-0.0516 1.56045,-1.20821 2.31912,-1.9411 0.75867,-0.73289 1.2373,-1.17611 2.41951,-2.0821 1.1822,-0.90599 2.00756,-1.52333 3.83429,-2.51035 1.82673,-0.98702 4.58815,-2.25485 6.88262,-2.4169 2.29447,-0.16205 5.71271,-0.61137 7.10485,-0.4088 1.39214,0.20256 1.11176,-1.41723 1.23698,-2.66568 0.12522,-1.24848 -0.0949,-3.45079 -0.75781,-5.76367 -0.66293,-2.31287 -1.76839,-4.73756 -3.61719,-7.33398 -1.8488,-2.59643 -4.44141,-5.36509 -7.21094,-7.29493 -2.76952,-1.92984 -5.71587,-3.01954 -8.82422,-3.53515 -1.55417,-0.25781 -3.1483,-0.37199 -4.75585,-0.32227 z m 5.63671,7.58789 c 2.41625,0 4.375,1.93077 4.375,4.3125 0,2.38173 -1.95875,4.3125 -4.375,4.3125 -2.41625,0 -4.375,-1.93077 -4.375,-4.3125 0,-2.38173 1.95875,-4.3125 4.375,-4.3125 z" sodipodi:nodetypes="ssscccsssscsssssscssscssssss"/><path id="path10" style="opacity:1;fill:#d5bb72;fill-rule:evenodd;stroke:#000000;stroke-width:1.00157;paint-order:stroke fill markers" d="m 417.25586,558.19141 a 24.218407,23.025164 0 0 0 -24.21679,23.02539 24.218407,23.025164 0 0 0 24.21679,23.02539 24.218407,23.025164 0 0 0 24.21876,-23.02539 24.218407,23.025164 0 0 0 -24.21876,-23.02539 z m 8.05665,15.68359 a 4.375,4.3125 0 0 1 4.375,4.3125 4.375,4.3125 0 0 1 -4.375,4.3125 4.375,4.3125 0 0 1 -4.375,-4.3125 4.375,4.3125 0 0 1 4.375,-4.3125 z"/><path style="opacity:1;fill:#d5bb72;fill-rule:evenodd;stroke:#000000;stroke-width:1.00157;paint-order:stroke fill markers" d="m 409.16043,519.88175 c -0.90206,0.81926 -2.70615,2.45773 -2.49654,3.75312 0.2096,1.29539 2.43283,2.24759 5.08451,3.97374 2.65168,1.72615 5.7315,4.22605 7.91377,7.02828 2.18227,2.80223 3.46674,5.90645 4.05335,8.58472 0.58661,2.67827 0.4753,4.93028 0.42701,6.41588 -0.0483,1.48561 -0.0336,2.20464 0.64659,2.72823 0.68015,0.52359 2.02563,0.85167 3.60384,1.39422 1.57822,0.54254 3.389,1.29948 5.04793,2.49776 1.65893,1.19828 3.16585,2.83778 3.93165,2.67046 0.7658,-0.16732 1.98364,-1.61114 3.3293,-4.46286 1.34566,-2.85171 3.17258,-6.84596 4.79821,-10.85075 1.97918,-3.73963 3.27082,-7.48955 3.83332,-12.07294 0.5625,-4.58339 0.39584,-9.99994 0.13542,-13.8333 -0.26042,-3.83336 -0.61458,-6.08331 -1.22918,-7.49998 -0.61459,-1.41668 -1.48957,-2 -4.13545,-2.01041 -2.64588,-0.0104 -7.06245,0.55208 -11.65625,1.30209 -4.5938,0.75001 -9.36454,1.68749 -13.12498,3.31252 -3.76045,1.62502 -6.51039,3.93747 -7.88539,5.09372 -1.375,1.15625 -1.37504,1.15625 -2.27711,1.9755 z" id="path11" transform="translate(-2.0000001,3.7500002)" sodipodi:nodetypes="cccccccccccccccccccc"/><path style="opacity:1;fill:#d5bb72;fill-rule:evenodd;stroke:#000000;stroke-width:1.00157;paint-order:stroke fill markers" d="m 390.1107,518.08771 c 1.06904,1.62939 2.49874,3.53393 2.71078,4.49681 0.21204,0.96289 -0.79358,0.98403 -2.84959,1.70073 -2.056,0.71669 -5.16214,2.12886 -7.53475,3.8833 -2.37261,1.75444 -4.01141,3.85094 -5.55406,6.60941 -1.54266,2.75847 -2.98898,6.17857 -3.51416,9.28606 -0.52518,3.1075 -0.12915,5.902 -0.7264,7.42152 -0.59725,1.51952 -2.18769,1.76384 -3.87082,2.31807 -1.68313,0.55422 -3.45873,1.41829 -5.18257,2.55784 -1.72384,1.13955 -3.39571,2.55448 -4.61786,2.89074 -1.22215,0.33626 -1.99444,-0.40617 -3.05012,-1.70093 -1.05567,-1.29476 -2.39465,-3.14174 -3.82458,-5.72153 -1.42993,-2.5798 -2.95074,-5.89223 -3.85699,-9.37144 -0.90625,-3.4792 -1.19791,-7.12496 -1.22916,-10.27082 -0.0312,-3.14586 0.19791,-5.79164 0.94793,-7.24997 0.75001,-1.45834 2.02082,-1.72917 4.02085,-1.80208 2.00002,-0.0729 4.72913,0.0521 7.4427,0.125 2.71357,0.0729 5.41138,0.0937 7.20308,0.0312 1.7917,-0.0625 2.67711,-0.20834 2.97313,-0.56582 0.29602,-0.35749 0.003,-0.92659 -0.28987,-2.39258 -0.29254,-1.46599 -0.58423,-3.82869 -0.62505,-6.6796 -0.0408,-2.85091 0.16924,-6.18969 1.82639,-7.32792 1.65715,-1.13823 4.76125,-0.0758 7.0946,0.87217 2.33335,0.94793 3.89582,1.78125 5.4375,2.85418 1.54168,1.07293 3.06249,2.3854 4.17708,3.71875 1.11459,1.33334 1.82291,2.68748 2.89194,4.31686 z" id="path12" transform="translate(-2.0000001,3.7500002)" sodipodi:nodetypes="cccccccccccccccccccccccccc"/></g></svg>