<?xml version="1.0" encoding="UTF-8" standalone="no"?>
<!-- Created with Inkscape (http://www.inkscape.org/) -->
<svg width="30.691664mm" height="30.691664mm" viewBox="0 0 115.99999 115.99999" version="1.1" id="svg1" xml:space="preserve" inkscape:version="1.4.2 (f4327f4, 2025-05-13)" sodipodi:docname="tailor.svg" xmlns:inkscape="http://www.inkscape.org/namespaces/inkscape" xmlns:sodipodi="http://sodipodi.sourceforge.net/DTD/sodipodi-0.dtd" xmlns="http://www.w3.org/2000/svg" xmlns:svg="http://www.w3.org/2000/svg"><sodipodi:namedview id="namedview1" pagecolor="#505050" bordercolor="#eeeeee" borderopacity="1" inkscape:showpageshadow="0" inkscape:pageopacity="0" inkscape:pagecheckerboard="0" inkscape:deskcolor="#505050" inkscape:document-units="mm" inkscape:zoom="8" inkscape:cx="45.5" inkscape:cy="53.3125" inkscape:window-width="2560" inkscape:window-height="1369" inkscape:window-x="2552" inkscape:window-y="-8" inkscape:window-maximized="1" inkscape:current-layer="layer1"/><defs id="defs1"><inkscape:path-effect effect="fillet_chamfer" id="path-effect9" is_visible="true" lpeversion="1" nodesatellites_param="F,0,1,1,0,0.71519662,0,1 @ F,0,0,1,0,0.71519662,0,1 @ F,0,1,1,0,0.71519662,0,1 @ F,0,1,1,0,0.71519662,0,1" radius="0" unit="px" method="auto" mode="F" chamfer_steps="1" flexible="false" use_knot_distance="true" apply_no_radius="true" apply_with_radius="true" only_selected="false" hide_knots="false"/><inkscape:path-effect effect="fillet_chamfer" id="path-effect8" is_visible="true" lpeversion="1" nodesatellites_param="F,0,0,1,0,0,0,1 @ F,0,0,1,0,0,0,1 @ F,0,1,1,0,0.77367325,0,1 @ F,0,0,1,0,0.77367325,0,1 @ F,0,0,1,0,0,0,1 @ F,0,0,1,0,0,0,1 @ F,0,0,1,0,0,0,1 @ F,0,0,1,0,0,0,1 | F,0,1,1,0,0.77367325,0,1 @ F,0,0,1,0,0,0,1 @ F,0,0,1,0,0,0,1 @ F,0,0,1,0,0,0,1 @ F,0,0,1,0,0,0,1 @ F,0,1,1,0,0.77367325,0,1" radius="0" unit="px" method="auto" mode="F" chamfer_steps="1" flexible="false" use_knot_distance="true" apply_no_radius="true" apply_with_radius="true" only_selected="false" hide_knots="false"/><inkscape:path-effect effect="fillet_chamfer" id="path-effect3" is_visible="true" lpeversion="1" nodesatellites_param="F,0,1,1,0,0.52263049,0,1 @ F,0,1,1,0,0.52263049,0,1 @ F,0,0,1,0,0.52263049,0,1 @ F,0,1,1,0,0.52263049,0,1" radius="0" unit="px" method="auto" mode="F" chamfer_steps="1" flexible="false" use_knot_distance="true" apply_no_radius="true" apply_with_radius="true" only_selected="false" hide_knots="false"/><inkscape:path-effect effect="bspline" id="path-effect5" is_visible="true" lpeversion="1.3" weight="33.333333" steps="2" helper_size="0" apply_no_weight="true" apply_with_weight="true" only_selected="false" uniform="false"/><inkscape:path-effect effect="bspline" id="path-effect4" is_visible="true" lpeversion="1.3" weight="33.333333" steps="2" helper_size="0" apply_no_weight="true" apply_with_weight="true" only_selected="false" uniform="false"/><inkscape:path-effect effect="bspline" id="path-effect24" is_visible="true" lpeversion="1.3" weight="33.333333" steps="2" helper_size="0" apply_no_weight="true" apply_with_weight="true" only_selected="false" uniform="false"/><inkscape:path-effect effect="bspline" id="path-effect4-4" is_visible="true" lpeversion="1.3" weight="33.333333" steps="2" helper_size="0" apply_no_weight="true" apply_with_weight="true" only_selected="false" uniform="false"/><inkscape:path-effect effect="bspline" id="path-effect5-5" is_visible="true" lpeversion="1.3" weight="33.333333" steps="2" helper_size="0" apply_no_weight="true" apply_with_weight="true" only_selected="false" uniform="false"/></defs><g inkscape:label="Layer 1" inkscape:groupmode="layer" id="layer1" transform="translate(-339,-504)"><path id="path1" style="opacity:1;fill:#d5bb72;fill-opacity:1;fill-rule:evenodd;stroke:#000000;stroke-width:0.755906;paint-order:stroke fill markers" d="M 397.73437 518.9375 A 42.02866 41.277359 0 0 0 355.70508 560.21484 A 42.02866 41.277359 0 0 0 397.73437 601.49219 A 42.02866 41.277359 0 0 0 439.76367 560.21484 A 42.02866 41.277359 0 0 0 397.73437 518.9375 z M 398.13281 527.33398 A 33.675964 32.968853 0 0 1 431.80859 560.30273 A 33.675964 32.968853 0 0 1 398.13281 593.27148 A 33.675964 32.968853 0 0 1 364.45508 560.30273 A 33.675964 32.968853 0 0 1 398.13281 527.33398 z "/><path id="path2-5" style="opacity:1;fill:#d5bb72;fill-opacity:1;fill-rule:evenodd;stroke:#000000;stroke-width:0.755906;paint-order:stroke fill markers" d="M 398.11914 529.42578 A 31.51045 30.848305 0 0 0 366.60937 560.27539 A 31.51045 30.848305 0 0 0 398.11914 591.12305 A 31.51045 30.848305 0 0 0 429.6289 560.27539 A 31.51045 30.848305 0 0 0 398.11914 529.42578 z M 409.14453 541.55664 A 7.7560782 7.4467182 0 0 1 416.90234 549.00391 A 7.7560782 7.4467182 0 0 1 409.14453 556.45117 A 7.7560782 7.4467182 0 0 1 408.93359 556.44726 L 405.05078 560.2832 L 409.14258 564.24023 A 7.7560782 7.4467182 0 0 1 409.47461 564.23437 A 7.7560782 7.4467182 0 0 1 417.23047 571.68164 A 7.7560782 7.4467182 0 0 1 409.47461 579.12695 A 7.7560782 7.4467182 0 0 1 401.7168 571.68164 A 7.7560782 7.4467182 0 0 1 401.76367 570.87695 L 398.00781 567.24219 L 393.53516 571.66015 A 7.7560782 7.4467182 0 0 1 393.53516 571.68359 A 7.7560782 7.4467182 0 0 1 385.7793 579.13086 A 7.7560782 7.4467182 0 0 1 378.02344 571.68359 A 7.7560782 7.4467182 0 0 1 385.7793 564.23633 A 7.7560782 7.4467182 0 0 1 386.88672 564.3125 L 390.89062 560.35547 L 386.80469 556.40234 A 7.7560782 7.4467182 0 0 1 385.68359 556.48047 A 7.7560782 7.4467182 0 0 1 377.92773 549.03516 A 7.7560782 7.4467182 0 0 1 385.68359 541.58789 A 7.7560782 7.4467182 0 0 1 393.43945 549.03516 A 7.7560782 7.4467182 0 0 1 393.43945 549.04687 L 397.93359 553.39648 L 401.44922 549.92383 A 7.7560782 7.4467182 0 0 1 401.38867 549.00391 A 7.7560782 7.4467182 0 0 1 409.14453 541.55664 z "/><path style="opacity:1;fill:#d5bb72;fill-opacity:1;fill-rule:evenodd;stroke:#000000;stroke-width:0.755906;paint-order:stroke fill markers" d="m 383.36844,549.87104 24.73166,24.73167 a 0.71519648,0.71519648 5.5641923e-6 0 0 1.01144,0 l 3.01023,-3.01023 a 0.71519676,0.71519676 90.000006 0 0 0,-1.01144 l -24.73166,-24.73167 a 0.71519648,0.71519648 5.5641794e-6 0 0 -1.01144,0 l -3.01023,3.01023 a 0.71519676,0.71519676 90.000006 0 0 0,1.01144 z" id="path2" sodipodi:nodetypes="ccccc" inkscape:path-effect="#path-effect9" inkscape:original-d="m 382.86272,549.36532 25.7431,25.74311 4.02167,-4.02167 -25.7431,-25.74311 z"/><path id="path3" style="opacity:1;fill:#d5bb72;fill-opacity:1;fill-rule:evenodd;stroke:#000000;stroke-width:0.755906;paint-order:stroke fill markers" d="m 409.20898,546.08008 c -0.13848,-0.002 -0.27194,0.0517 -0.37109,0.14843 l -9.02885,8.82826 a 0.74108317,0.74108317 89.411049 0 0 0.011,1.07029 l 2.42047,2.27127 a 0.81157494,0.81157494 179.54814 0 0 1.11994,-0.009 l 8.9208,-8.63949 c 0.20641,-0.20043 0.21089,-0.53036 0.01,-0.73633 l -2.71484,-2.77539 c -0.0966,-0.0993 -0.22866,-0.15622 -0.36719,-0.1582 z m -16.9848,16.39247 -9.05621,8.85557 c -0.20708,0.20201 -0.21066,0.5338 -0.008,0.74024 l 2.59179,2.64844 c 0.20204,0.20627 0.5327,0.21073 0.74024,0.01 l 9.24698,-8.95589 a 0.73761249,0.73761249 89.549305 0 0 -0.008,-1.06769 l -2.38909,-2.24214 a 0.80761559,0.80761559 179.4121 0 0 -1.11731,0.0115 z" inkscape:path-effect="#path-effect8" inkscape:original-d="m 409.20898,546.08008 a 0.52263019,0.52263019 0 0 0 -0.37109,0.14843 l -9.58203,9.36915 3.54883,3.33007 9.47656,-9.17773 a 0.52013618,0.52013618 0 0 0 0.01,-0.73633 l -2.71484,-2.77539 a 0.52263019,0.52263019 0 0 0 -0.36719,-0.1582 z m -16.43164,15.85156 -9.60937,9.39648 a 0.5226314,0.5226314 0 0 0 -0.008,0.74024 l 2.59179,2.64844 a 0.52513614,0.52513614 0 0 0 0.74024,0.01 l 9.80273,-9.49414 z"/></g></svg>