<?xml version="1.0" encoding="UTF-8" standalone="no"?>
<!-- Created with Inkscape (http://www.inkscape.org/) -->
<svg width="30.691668mm" height="30.691668mm" viewBox="0 0 30.691668 30.691668" version="1.1" id="svg1" xml:space="preserve" inkscape:version="1.4.2 (f4327f4, 2025-05-13)" sodipodi:docname="hunting.svg" xmlns:inkscape="http://www.inkscape.org/namespaces/inkscape" xmlns:sodipodi="http://sodipodi.sourceforge.net/DTD/sodipodi-0.dtd" xmlns="http://www.w3.org/2000/svg" xmlns:svg="http://www.w3.org/2000/svg"><sodipodi:namedview id="namedview1" pagecolor="#505050" bordercolor="#eeeeee" borderopacity="1" inkscape:showpageshadow="0" inkscape:pageopacity="0" inkscape:pagecheckerboard="0" inkscape:deskcolor="#505050" inkscape:document-units="mm" inkscape:zoom="5.6568543" inkscape:cx="27.223611" inkscape:cy="36.681164" inkscape:window-width="2560" inkscape:window-height="1369" inkscape:window-x="2552" inkscape:window-y="-8" inkscape:window-maximized="1" inkscape:current-layer="layer1"/><defs id="defs1"><inkscape:path-effect effect="bspline" id="path-effect3" is_visible="true" lpeversion="1.3" weight="33.333333" steps="2" helper_size="0" apply_no_weight="true" apply_with_weight="true" only_selected="false" uniform="false"/><inkscape:path-effect effect="bspline" id="path-effect2" is_visible="true" lpeversion="1.3" weight="33.333333" steps="2" helper_size="0" apply_no_weight="true" apply_with_weight="true" only_selected="false" uniform="false"/><inkscape:path-effect effect="bspline" id="path-effect1" is_visible="true" lpeversion="1.3" weight="33.333333" steps="2" helper_size="0" apply_no_weight="true" apply_with_weight="true" only_selected="false" uniform="false"/><inkscape:path-effect effect="bspline" id="path-effect13" is_visible="true" lpeversion="1.3" weight="33.333333" steps="2" helper_size="0" apply_no_weight="true" apply_with_weight="true" only_selected="false" uniform="false"/><inkscape:path-effect effect="bspline" id="path-effect12" is_visible="true" lpeversion="1.3" weight="33.333333" steps="2" helper_size="0" apply_no_weight="true" apply_with_weight="true" only_selected="false" uniform="false"/><inkscape:path-effect effect="bspline" id="path-effect11" is_visible="true" lpeversion="1.3" weight="33.333333" steps="2" helper_size="0" apply_no_weight="true" apply_with_weight="true" only_selected="false" uniform="false"/><inkscape:path-effect effect="fillet_chamfer" id="path-effect4" is_visible="true" lpeversion="1" nodesatellites_param="F,0,0,1,0,0,0,1 @ F,0,0,1,0,0,0,1 @ F,0,0,1,0,0,0,1 @ F,0,0,1,0,0,0,1 @ F,0,0,1,0,0,0,1 @ F,0,0,1,0,0,0,1 @ F,0,0,1,0,0,0,1 @ F,0,0,1,0,0,0,1 @ F,0,0,1,0,0,0,1 @ F,0,0,1,0,0,0,1 @ F,0,0,1,0,0,0,1 @ F,0,0,1,0,0,0,1 @ F,0,0,1,0,0,0,1 @ F,0,0,1,0,0,0,1 @ F,0,0,1,0,0,0,1 @ F,0,0,1,0,0,0,1 | F,0,0,1,0,0,0,1 @ F,0,0,1,0,0,0,1 @ F,0,0,1,0,0,0,1 @ F,0,0,1,0,0,0,1 @ F,0,0,1,0,0,0,1 @ F,0,0,1,0,0,0,1 @ F,0,0,1,0,0,0,1 @ F,0,0,1,0,0,0,1 @ F,0,0,1,0,0,0,1 @ F,0,0,1,0,0,0,1 @ F,0,0,1,0,0,0,1 @ F,0,0,1,0,0,0,1 @ F,0,0,1,0,0,0,1 @ F,0,0,1,0,0,0,1 @ F,0,0,1,0,0,0,1 @ F,0,0,1,0,0,0,1 @ F,0,0,1,0,0,0,1" radius="0" unit="px" method="auto" mode="F" chamfer_steps="1" flexible="false" use_knot_distance="true" apply_no_radius="true" apply_with_radius="true" only_selected="false" hide_knots="false"/><inkscape:path-effect effect="bspline" id="path-effect13-4" is_visible="true" lpeversion="1.3" weight="33.333333" steps="2" helper_size="0" apply_no_weight="true" apply_with_weight="true" only_selected="false" uniform="false"/><inkscape:path-effect effect="bspline" id="path-effect13-8" is_visible="true" lpeversion="1.3" weight="33.333333" steps="2" helper_size="0" apply_no_weight="true" apply_with_weight="true" only_selected="false" uniform="false"/><inkscape:path-effect effect="bspline" id="path-effect3-2" is_visible="true" lpeversion="1.3" weight="33.333333" steps="2" helper_size="0" apply_no_weight="true" apply_with_weight="true" only_selected="false" uniform="false"/></defs><g inkscape:label="Layer 1" inkscape:groupmode="layer" id="layer1" transform="translate(-89.693748,-133.35001)"><path style="fill:#d5bb72;fill-rule:evenodd;stroke:#000000;stroke-width:0.264999;paint-order:stroke fill markers" d="m 102.40213,151.79774 c 0.11499,0.0897 0.34495,0.26894 0.52424,0.51254 0.17929,0.24361 0.30791,0.55151 0.17928,0.86626 -0.12863,0.31474 -0.51448,0.63629 -1.44897,1.59221 -0.93449,0.95593 -2.417463,2.54608 -3.288629,3.37145 -0.871166,0.82537 -1.130347,0.88578 -1.444119,0.83608 -0.313771,-0.0497 -0.682082,-0.2095 -0.874047,-0.46383 -0.191965,-0.25433 -0.207554,-0.60315 -0.123753,-0.87015 0.0838,-0.267 0.266983,-0.45213 1.184908,-1.4295 0.917925,-0.97736 2.570507,-2.74687 3.55565,-3.62969 0.98513,-0.88282 1.30458,-0.8789 1.46252,-0.87696 0.15794,0.002 0.15794,0.002 0.27292,0.0916 z" id="path1" inkscape:path-effect="#path-effect1" inkscape:original-d="m 102.28715,151.70809 c 0.22997,0.17929 0.45993,0.35858 0.68989,0.53788 0.12862,0.30792 0.25724,0.61582 0.38586,0.92375 -0.38588,0.32156 -0.77173,0.64311 -1.15761,0.96467 -1.4831,1.59029 -2.966073,3.18044 -4.449202,4.77076 -0.259206,0.0604 -0.518383,0.12083 -0.777586,0.18124 -0.368342,-0.15981 -0.736652,-0.31961 -1.104992,-0.47942 -0.01559,-0.34885 -0.03118,-0.69767 -0.04677,-1.04653 0.183196,-0.18514 0.366378,-0.37027 0.549573,-0.55542 1.652654,-1.76958 3.305231,-3.53909 4.95785,-5.30863 0.31766,0.004 0.6371,0.008 0.95299,0.0117 z" sodipodi:nodetypes="ccccccccccc"/><path style="fill:#d5bb72;fill-rule:evenodd;stroke:#000000;stroke-width:0.264999;paint-order:stroke fill markers" d="m 102.15,150.95617 c 0.15623,-0.0238 0.46872,-0.0713 0.78894,-0.0234 0.32022,0.0479 0.64819,0.19121 0.84525,0.44064 0.19706,0.24943 0.2632,0.60495 0.28801,0.93155 0.0248,0.3266 0.008,0.62425 0.0565,0.77721 0.0482,0.15296 0.16124,0.16122 0.29077,0.10059 0.12954,-0.0606 0.27561,-0.19017 0.42168,-0.30179 0.14608,-0.11163 0.29215,-0.20533 0.57051,-0.15848 0.27837,0.0469 0.68902,0.23427 1.01975,0.44649 0.33073,0.21222 0.58153,0.44924 0.76067,0.56223 0.17915,0.113 0.28664,0.10196 0.33905,-0.003 0.0524,-0.10474 0.0497,-0.30318 -0.0233,-0.80892 -0.073,-0.50575 -0.2163,-1.31877 -0.37754,-2.09737 -0.16123,-0.7786 -0.34037,-1.52273 -0.45614,-1.9403 -0.11577,-0.41757 -0.16811,-0.50847 -0.27836,-0.55261 -0.11025,-0.0441 -0.27836,-0.0415 -0.61736,-0.10078 -0.339,-0.0593 -0.84886,-0.18056 -1.56683,-0.33077 -0.71797,-0.15021 -1.64399,-0.32935 -2.22277,-0.43133 -0.57878,-0.10197 -0.81028,-0.12677 -0.90674,-0.0648 -0.0965,0.062 -0.0579,0.21085 0.0634,0.40239 0.12127,0.19154 0.32521,0.42581 0.48782,0.69728 0.16261,0.27148 0.28387,0.58015 0.31832,0.86265 0.0345,0.28251 -0.0179,0.53881 -0.0827,0.7345 -0.0648,0.19569 -0.14193,0.33073 -0.21497,0.45199 -0.073,0.12127 -0.14194,0.22876 -0.10676,0.2943 0.0352,0.0655 0.26298,0.10414 0.35475,0.11969 0.0918,0.0155 0.0918,0.0156 0.24799,-0.008 z" id="path2" inkscape:path-effect="#path-effect2" inkscape:original-d="m 101.99377,150.97994 c 0.31247,-0.0475 0.62495,-0.0951 0.93741,-0.14263 0.32798,0.14332 0.65595,0.28664 0.98392,0.42995 0.0662,0.35554 0.13229,0.71107 0.19844,1.0666 -0.0165,0.29767 -0.0331,0.59532 -0.0496,0.89297 0.113,0.008 0.226,0.0165 0.339,0.0248 0.14607,-0.12954 0.29214,-0.25907 0.43821,-0.38861 0.14608,-0.0937 0.29215,-0.18741 0.43822,-0.28112 0.41066,0.18742 0.82131,0.37483 1.23197,0.56224 0.2508,0.23703 0.5016,0.47405 0.7524,0.71107 0.10749,-0.011 0.21498,-0.0221 0.32247,-0.0331 -0.003,-0.19845 -0.006,-0.39688 -0.008,-0.59532 -0.14332,-0.81306 -0.28663,-1.62608 -0.42995,-2.43912 -0.17915,-0.74416 -0.35829,-1.48829 -0.53744,-2.23243 -0.0524,-0.091 -0.10473,-0.1819 -0.15709,-0.27285 -0.16813,0.003 -0.33624,0.006 -0.50436,0.008 -0.50989,-0.12127 -1.01975,-0.24253 -1.52963,-0.3638 -0.92606,-0.17915 -1.85208,-0.35829 -2.77812,-0.53744 -0.23152,-0.0248 -0.46302,-0.0496 -0.69453,-0.0744 0.0386,0.14883 0.0772,0.29766 0.11575,0.44648 0.20396,0.23427 0.4079,0.46854 0.61185,0.7028 0.12127,0.30869 0.24254,0.61736 0.3638,0.92604 -0.0524,0.25632 -0.10473,0.51263 -0.15709,0.76895 -0.0772,0.13505 -0.15434,0.2701 -0.23151,0.40514 -0.0689,0.10749 -0.13781,0.21498 -0.20671,0.32246 0.13926,0.0236 0.36706,0.0622 0.55059,0.0933 z" sodipodi:nodetypes="cccccccccccccccccccccccccc"/><path style="fill:#d5bb72;fill-rule:evenodd;stroke:#000000;stroke-width:0.264999;paint-order:stroke fill markers" d="m 108.58736,146.72925 c -1.17515,1.15761 -1.35815,1.32596 -1.4282,1.50368 -0.0701,0.17772 -0.0272,0.3648 0.18329,1.26128 0.21048,0.89649 0.58855,2.5023 0.87079,3.4082 0.28225,0.9059 0.46867,1.11184 0.64444,1.05213 0.17578,-0.0597 0.34089,-0.38504 0.66143,-1.3532 0.32054,-0.96816 0.79647,-2.57903 1.70622,-4.54226 0.90975,-1.96323 2.25324,-4.27864 2.974,-5.60878 0.72076,-1.33014 0.81875,-1.67492 0.69791,-1.70611 -0.12083,-0.0312 -0.46046,0.25125 -1.71396,1.46594 -1.25351,1.21468 -3.42076,3.36151 -4.59592,4.51912 z" id="path3" inkscape:path-effect="#path-effect3" inkscape:original-d="m 107.59521,147.71851 c -0.183,0.16835 -0.366,0.3367 -0.54899,0.50505 0.0429,0.18709 0.0857,0.37418 0.12863,0.56126 0.37808,1.60588 0.75615,3.21169 1.13422,4.81754 0.18642,0.20595 0.37284,0.41189 0.55926,0.61784 0.16513,-0.32536 0.33024,-0.6507 0.49537,-0.97607 0.47595,-1.61095 0.95188,-3.22182 1.42784,-4.83278 1.34355,-2.3155 2.68703,-4.63091 4.03055,-6.94637 0.098,-0.34482 0.19599,-0.6896 0.29399,-1.03444 -0.33967,0.28247 -0.6793,0.5649 -1.01895,0.84735 -2.16736,2.14692 -4.33461,4.29375 -6.50192,6.44062 z" sodipodi:nodetypes="ccccccccccc"/><path style="opacity:1;fill:#d5bb72;fill-rule:evenodd;stroke:#000000;stroke-width:0.264999;paint-order:stroke fill markers" d="m 108.6577,146.54489 c -1.16499,1.12071 -1.35772,1.28894 -1.42701,1.48422 -0.0693,0.19527 -0.0151,0.41756 0.15466,1.31055 0.16978,0.89299 0.45517,2.45658 0.63026,3.44517 0.1751,0.98859 0.23989,1.40212 0.46275,1.38094 0.22286,-0.0212 0.60376,-0.47701 1.00999,-1.52521 0.40624,-1.0482 0.83773,-2.68853 1.75498,-4.6233 0.91725,-1.93476 2.32013,-4.16369 3.07023,-5.50229 0.75011,-1.3386 0.84733,-1.78667 0.70244,-1.84444 -0.1449,-0.0578 -0.53187,0.27478 -1.79401,1.47767 -1.26214,1.2029 -3.39929,3.27598 -4.56429,4.39669 z" id="path3-5" inkscape:path-effect="#path-effect3-2" inkscape:original-d="m 107.68545,147.49736 c -0.19274,0.16824 -0.38547,0.33647 -0.57822,0.50472 0.0542,0.2223 0.10833,0.44459 0.1625,0.66689 0.2854,1.56368 0.57079,3.12727 0.85618,4.69092 0.0648,0.41353 0.12959,0.82706 0.19439,1.24059 0.38092,-0.45588 0.76182,-0.91172 1.14275,-1.36761 0.43154,-1.64051 0.86303,-3.28084 1.29455,-4.92131 1.40298,-2.22906 2.80586,-4.45799 4.20883,-6.68706 0.0972,-0.44813 0.19446,-0.8962 0.2917,-1.34435 -0.38703,0.3326 -0.774,0.66516 -1.161,0.99774 -2.13728,2.07321 -4.27443,4.14629 -6.41168,6.21947 z" sodipodi:nodetypes="ccccccccccc" transform="matrix(0.01146055,-0.99993433,-0.99993433,-0.01146055,253.62844,256.55116)"/></g></svg>