<?xml version="1.0" encoding="UTF-8" standalone="no"?>
<!-- Created with Inkscape (http://www.inkscape.org/) -->
<svg width="30.691666mm" height="30.691666mm" viewBox="0 0 116 116" version="1.1" id="svg1" xml:space="preserve" inkscape:version="1.4.2 (f4327f4, 2025-05-13)" sodipodi:docname="Farming.svg" xmlns:inkscape="http://www.inkscape.org/namespaces/inkscape" xmlns:sodipodi="http://sodipodi.sourceforge.net/DTD/sodipodi-0.dtd" xmlns="http://www.w3.org/2000/svg" xmlns:svg="http://www.w3.org/2000/svg"><sodipodi:namedview id="namedview1" pagecolor="#505050" bordercolor="#eeeeee" borderopacity="1" inkscape:showpageshadow="0" inkscape:pageopacity="0" inkscape:pagecheckerboard="0" inkscape:deskcolor="#505050" inkscape:document-units="mm" inkscape:zoom="8.1744669" inkscape:cx="50.033844" inkscape:cy="58.291263" inkscape:window-width="2560" inkscape:window-height="1369" inkscape:window-x="2552" inkscape:window-y="-8" inkscape:window-maximized="1" inkscape:current-layer="layer1"/><defs id="defs1"><inkscape:path-effect effect="bspline" id="path-effect9" is_visible="true" lpeversion="1.3" weight="33.333333" steps="2" helper_size="0" apply_no_weight="true" apply_with_weight="true" only_selected="false" uniform="false"/><inkscape:path-effect effect="bspline" id="path-effect8" is_visible="true" lpeversion="1.3" weight="33.333333" steps="2" helper_size="0" apply_no_weight="true" apply_with_weight="true" only_selected="false" uniform="false"/><inkscape:path-effect effect="bspline" id="path-effect7" is_visible="true" lpeversion="1.3" weight="33.333333" steps="2" helper_size="0" apply_no_weight="true" apply_with_weight="true" only_selected="false" uniform="false"/><inkscape:path-effect effect="fillet_chamfer" id="path-effect6" is_visible="true" lpeversion="1" nodesatellites_param="F,0,0,1,0,0,0,1 @ F,0,0,1,0,4.1655696,0,1 @ F,0,0,1,0,4.5720127,0,1 @ F,0,0,1,0,0,0,1" radius="0" unit="px" method="auto" mode="F" chamfer_steps="1" flexible="false" use_knot_distance="true" apply_no_radius="true" apply_with_radius="true" only_selected="false" hide_knots="false"/><inkscape:path-effect effect="fillet_chamfer" id="path-effect5" is_visible="true" lpeversion="1" nodesatellites_param="F,0,0,1,0,0,0,1 @ F,0,0,1,0,0,0,1 @ F,0,0,1,0,3.2447214,0,1 @ F,0,0,1,0,0,0,1 @ F,0,0,1,0,4.5698729,0,1" radius="0" unit="px" method="auto" mode="F" chamfer_steps="1" flexible="false" use_knot_distance="true" apply_no_radius="true" apply_with_radius="true" only_selected="false" hide_knots="false"/><inkscape:path-effect effect="fillet_chamfer" id="path-effect4" is_visible="true" lpeversion="1" nodesatellites_param="F,0,0,1,0,0,0,1 @ F,0,0,1,0,0,0,1 @ F,0,0,1,0,5.1516765,0,1 @ F,0,0,1,0,4.2698929,0,1 @ F,0,1,1,0,4.2698929,0,1" radius="0" unit="px" method="auto" mode="F" chamfer_steps="1" flexible="false" use_knot_distance="true" apply_no_radius="true" apply_with_radius="true" only_selected="false" hide_knots="false"/><inkscape:path-effect effect="bspline" id="path-effect3" is_visible="true" lpeversion="1.3" weight="33.333333" steps="2" helper_size="0" apply_no_weight="true" apply_with_weight="true" only_selected="false" uniform="false"/><inkscape:path-effect effect="bspline" id="path-effect2" is_visible="true" lpeversion="1.3" weight="33.333333" steps="2" helper_size="0" apply_no_weight="true" apply_with_weight="true" only_selected="false" uniform="false"/><inkscape:path-effect effect="bspline" id="path-effect1" is_visible="true" lpeversion="1.3" weight="33.333333" steps="2" helper_size="0" apply_no_weight="true" apply_with_weight="true" only_selected="false" uniform="false"/><inkscape:path-effect effect="bspline" id="path-effect2-3" is_visible="true" lpeversion="1.3" weight="33.333333" steps="2" helper_size="0" apply_no_weight="true" apply_with_weight="true" only_selected="false" uniform="false"/><inkscape:path-effect effect="bspline" id="path-effect2-8" is_visible="true" lpeversion="1.3" weight="33.333333" steps="2" helper_size="0" apply_no_weight="true" apply_with_weight="true" only_selected="false" uniform="false"/><inkscape:path-effect effect="bspline" id="path-effect2-9" is_visible="true" lpeversion="1.3" weight="33.333333" steps="2" helper_size="0" apply_no_weight="true" apply_with_weight="true" only_selected="false" uniform="false"/><inkscape:path-effect effect="bspline" id="path-effect2-5" is_visible="true" lpeversion="1.3" weight="33.333333" steps="2" helper_size="0" apply_no_weight="true" apply_with_weight="true" only_selected="false" uniform="false"/><inkscape:path-effect effect="bspline" id="path-effect2-2" is_visible="true" lpeversion="1.3" weight="33.333333" steps="2" helper_size="0" apply_no_weight="true" apply_with_weight="true" only_selected="false" uniform="false"/><inkscape:path-effect effect="bspline" id="path-effect2-5-9" is_visible="true" lpeversion="1.3" weight="33.333333" steps="2" helper_size="0" apply_no_weight="true" apply_with_weight="true" only_selected="false" uniform="false"/><inkscape:path-effect effect="bspline" id="path-effect2-5-9-8" is_visible="true" lpeversion="1.3" weight="33.333333" steps="2" helper_size="0" apply_no_weight="true" apply_with_weight="true" only_selected="false" uniform="false"/><inkscape:path-effect effect="bspline" id="path-effect2-5-9-0" is_visible="true" lpeversion="1.3" weight="33.333333" steps="2" helper_size="0" apply_no_weight="true" apply_with_weight="true" only_selected="false" uniform="false"/><inkscape:path-effect effect="bspline" id="path-effect2-5-9-9" is_visible="true" lpeversion="1.3" weight="33.333333" steps="2" helper_size="0" apply_no_weight="true" apply_with_weight="true" only_selected="false" uniform="false"/><inkscape:path-effect effect="bspline" id="path-effect2-5-9-2" is_visible="true" lpeversion="1.3" weight="33.333333" steps="2" helper_size="0" apply_no_weight="true" apply_with_weight="true" only_selected="false" uniform="false"/><inkscape:path-effect effect="bspline" id="path-effect2-5-9-84" is_visible="true" lpeversion="1.3" weight="33.333333" steps="2" helper_size="0" apply_no_weight="true" apply_with_weight="true" only_selected="false" uniform="false"/><inkscape:path-effect effect="bspline" id="path-effect2-1" is_visible="true" lpeversion="1.3" weight="33.333333" steps="2" helper_size="0" apply_no_weight="true" apply_with_weight="true" only_selected="false" uniform="false"/><inkscape:path-effect effect="bspline" id="path-effect2-1-3" is_visible="true" lpeversion="1.3" weight="33.333333" steps="2" helper_size="0" apply_no_weight="true" apply_with_weight="true" only_selected="false" uniform="false"/><inkscape:path-effect effect="bspline" id="path-effect2-1-6" is_visible="true" lpeversion="1.3" weight="33.333333" steps="2" helper_size="0" apply_no_weight="true" apply_with_weight="true" only_selected="false" uniform="false"/><inkscape:path-effect effect="bspline" id="path-effect2-1-6-2" is_visible="true" lpeversion="1.3" weight="33.333333" steps="2" helper_size="0" apply_no_weight="true" apply_with_weight="true" only_selected="false" uniform="false"/><inkscape:path-effect effect="bspline" id="path-effect2-1-6-2-0" is_visible="true" lpeversion="1.3" weight="33.333333" steps="2" helper_size="0" apply_no_weight="true" apply_with_weight="true" only_selected="false" uniform="false"/><inkscape:path-effect effect="bspline" id="path-effect2-1-6-2-0-7" is_visible="true" lpeversion="1.3" weight="33.333333" steps="2" helper_size="0" apply_no_weight="true" apply_with_weight="true" only_selected="false" uniform="false"/><inkscape:path-effect effect="bspline" id="path-effect2-1-6-2-0-7-8" is_visible="true" lpeversion="1.3" weight="33.333333" steps="2" helper_size="0" apply_no_weight="true" apply_with_weight="true" only_selected="false" uniform="false"/><inkscape:path-effect effect="bspline" id="path-effect2-1-6-2-0-7-8-0" is_visible="true" lpeversion="1.3" weight="33.333333" steps="2" helper_size="0" apply_no_weight="true" apply_with_weight="true" only_selected="false" uniform="false"/><inkscape:path-effect effect="bspline" id="path-effect2-1-6-2-0-7-8-0-5" is_visible="true" lpeversion="1.3" weight="33.333333" steps="2" helper_size="0" apply_no_weight="true" apply_with_weight="true" only_selected="false" uniform="false"/><inkscape:path-effect effect="bspline" id="path-effect2-1-6-2-0-7-8-0-5-3" is_visible="true" lpeversion="1.3" weight="33.333333" steps="2" helper_size="0" apply_no_weight="true" apply_with_weight="true" only_selected="false" uniform="false"/><inkscape:path-effect effect="bspline" id="path-effect2-1-6-2-0-7-8-0-5-3-6" is_visible="true" lpeversion="1.3" weight="33.333333" steps="2" helper_size="0" apply_no_weight="true" apply_with_weight="true" only_selected="false" uniform="false"/><inkscape:path-effect effect="bspline" id="path-effect2-1-6-2-0-7-8-0-5-3-6-9" is_visible="true" lpeversion="1.3" weight="33.333333" steps="2" helper_size="0" apply_no_weight="true" apply_with_weight="true" only_selected="false" uniform="false"/><inkscape:path-effect effect="bspline" id="path-effect1-9" is_visible="true" lpeversion="1.3" weight="33.333333" steps="2" helper_size="0" apply_no_weight="true" apply_with_weight="true" only_selected="false" uniform="false"/><inkscape:path-effect effect="bspline" id="path-effect3-7" is_visible="true" lpeversion="1.3" weight="33.333333" steps="2" helper_size="0" apply_no_weight="true" apply_with_weight="true" only_selected="false" uniform="false"/><inkscape:path-effect effect="bspline" id="path-effect3-7-1" is_visible="true" lpeversion="1.3" weight="33.333333" steps="2" helper_size="0" apply_no_weight="true" apply_with_weight="true" only_selected="false" uniform="false"/></defs><g inkscape:label="Layer 1" inkscape:groupmode="layer" id="layer1" transform="translate(-339,-503)"><path style="fill:#d5bb72;fill-rule:evenodd;stroke:#000000;stroke-width:1.00157;paint-order:stroke fill markers" d="m 436.10917,589.88574 c -0.99477,1.02902 -2.29227,3.75016 -4.08181,5.68208 -1.78955,1.93191 -4.07096,3.07442 -5.2009,3.8205 -1.12995,0.74609 -1.10832,1.09569 -0.5028,1.57327 0.60553,0.47757 1.79491,1.08307 3.10507,1.39484 1.31015,0.31176 2.74098,0.32978 4.39356,-0.5767 1.65258,-0.90649 3.52671,-2.73737 4.49087,-4.33949 0.96415,-1.60212 1.01822,-2.97531 0.89567,-4.14671 -0.12255,-1.17139 -0.42169,-2.14088 -0.91729,-2.95726 -0.49559,-0.81638 -1.18759,-1.47954 -2.18237,-0.45053 z" id="path1" sodipodi:nodetypes="sccccccccs"/><path style="fill:#d5bb72;fill-rule:evenodd;stroke:#000000;stroke-width:1.00157;paint-order:stroke fill markers" d="m 433.00592,586.30131 c 0.32438,0.21626 0.97315,0.64877 1.12452,1.1822 0.15138,0.53344 -0.19462,1.16777 -0.98757,2.20581 -0.79294,1.03803 -2.03278,2.47971 -3.30149,3.79887 -1.26871,1.31917 -2.56621,2.51575 -3.6547,3.35194 -1.08849,0.83619 -1.96791,1.31194 -2.87619,0.865 -0.90827,-0.44694 -1.84535,-1.81652 -4.11607,-5.16853 -2.27071,-3.352 -5.87488,-8.68618 -7.81397,-11.48307 -1.93909,-2.7969 -2.21301,-3.0564 -2.61669,-2.94106 -0.40368,0.11534 -0.9371,0.60552 -1.52099,1.02361 -0.58389,0.41809 -1.21823,0.76409 -1.79491,0.56946 -0.57669,-0.19464 -1.09569,-0.92989 -1.39845,-1.58587 -0.30275,-0.65598 -0.38925,-1.23265 0.22349,-2.33556 0.61273,-1.10292 1.92465,-2.732 3.35915,-4.17371 1.43451,-1.44171 2.99151,-2.69596 4.3323,-3.3159 1.34079,-0.61994 2.46529,-0.60554 3.04197,-0.0937 0.57668,0.51181 0.60552,1.52097 0.36763,2.37879 -0.23789,0.85782 -0.74247,1.56424 -0.50458,2.24184 0.23789,0.67761 1.21822,1.32636 4.31072,3.53219 3.09249,2.20584 8.29692,5.9686 10.89919,7.85001 2.60226,1.88142 2.60226,1.88147 2.92664,2.09772 z" id="path7"/><path style="opacity:1;fill:#d5bb72;fill-rule:evenodd;stroke:#000000;stroke-width:1.00157;paint-order:stroke fill markers" d="m 418.37629,563.76577 c 0.0324,0.44152 0.0973,1.32456 -0.46856,1.66516 -0.56588,0.3406 -1.76247,0.13877 -3.06722,-0.0486 -1.30475,-0.18743 -2.71759,-0.36043 -4.23859,0.007 -1.52101,0.36765 -3.1501,1.2759 -4.40438,2.26347 -1.25428,0.98758 -2.1337,2.05441 -2.99513,3.11047 -0.86142,1.05605 -1.70478,2.10123 -2.06522,3.53215 -0.36043,1.43092 -0.23789,3.24738 0.11534,4.5197 0.35322,1.27233 0.93709,2.00036 -0.3893,2.5374 -1.32639,0.53704 -4.56294,0.88304 -8.88288,0.9753 -4.31995,0.0923 -9.72291,-0.0692 -13.96879,-1.25864 -4.24588,-1.18942 -7.33426,-3.4067 -9.8156,-5.7192 -2.48134,-2.3125 -4.3555,-4.72008 -6.08555,-7.4233 -1.73006,-2.70321 -3.31589,-5.70188 -4.28183,-8.44834 -0.96595,-2.74646 -1.31195,-5.24055 -1.29753,-7.88609 0.0144,-2.64555 0.38926,-5.44239 0.82177,-7.72029 0.43252,-2.2779 0.92268,-4.03674 1.63273,-5.95061 0.71004,-1.91388 1.6399,-3.98263 3.32312,-6.23533 1.68321,-2.25269 4.11959,-4.68907 6.79039,-6.48762 2.6708,-1.79856 5.57576,-2.9591 8.11677,-3.7989 2.54102,-0.83979 4.71794,-1.35879 7.38511,-1.63992 2.66717,-0.28113 5.82443,-0.32438 8.85203,-0.13696 3.02759,0.18743 5.92534,0.60551 8.18883,1.0164 2.26348,0.41089 3.89256,0.81455 2.20369,0.95005 -1.68887,0.1355 -6.69544,0.003 -10.66019,0.27676 -3.96474,0.27393 -6.88726,0.95444 -9.84794,2.31833 -2.96069,1.36388 -5.95936,3.41105 -8.06986,5.60608 -2.1105,2.19502 -3.3327,4.53773 -4.2075,7.21584 -0.8748,2.67811 -1.40212,5.69132 -1.22431,8.8512 0.1778,3.15987 1.0607,6.46606 3.05037,9.29353 1.98967,2.82747 5.08587,5.1759 7.91247,6.51058 2.8266,1.33469 5.38329,1.65548 8.57196,1.54194 3.18867,-0.11353 7.00909,-0.66136 10.18085,-1.75707 3.17176,-1.0957 5.69469,-2.73921 7.68425,-4.54135 1.98955,-1.80214 3.44564,-3.76281 4.426,-5.29823 0.98036,-1.53542 1.48495,-2.64551 1.96071,-2.76083 0.47576,-0.11533 0.92268,0.76409 1.694,2.869 0.77132,2.10491 1.86699,5.43517 2.42565,7.5743 0.55866,2.13913 0.5803,3.08702 0.59111,3.56098 0.0108,0.47396 0.0108,0.47396 0.0432,0.91548 z" id="path8" sodipodi:nodetypes="cccccccccccccccccccccccccccccccccccccccc"/></g></svg>