<?xml version="1.0" encoding="UTF-8" standalone="no"?>
<!-- Created with Inkscape (http://www.inkscape.org/) -->
<svg width="28.873909mm" height="27.999998mm" viewBox="0 0 109.12974 105.82677" version="1.1" id="svg1" xml:space="preserve" inkscape:version="1.4.2 (f4327f4, 2025-05-13)" sodipodi:docname="Scholar.svg" xmlns:inkscape="http://www.inkscape.org/namespaces/inkscape" xmlns:sodipodi="http://sodipodi.sourceforge.net/DTD/sodipodi-0.dtd" xmlns="http://www.w3.org/2000/svg" xmlns:svg="http://www.w3.org/2000/svg"><sodipodi:namedview id="namedview1" pagecolor="#505050" bordercolor="#eeeeee" borderopacity="1" inkscape:showpageshadow="0" inkscape:pageopacity="0" inkscape:pagecheckerboard="0" inkscape:deskcolor="#505050" inkscape:document-units="mm" inkscape:zoom="8.1744669" inkscape:cx="46.241548" inkscape:cy="46.302714" inkscape:window-width="2560" inkscape:window-height="1369" inkscape:window-x="2552" inkscape:window-y="-8" inkscape:window-maximized="1" inkscape:current-layer="layer1"/><defs id="defs1"><inkscape:path-effect effect="bspline" id="path-effect6" is_visible="true" lpeversion="1.3" weight="33.333333" steps="2" helper_size="0" apply_no_weight="true" apply_with_weight="true" only_selected="false" uniform="false"/><inkscape:path-effect effect="bspline" id="path-effect5" is_visible="true" lpeversion="1.3" weight="33.333333" steps="2" helper_size="0" apply_no_weight="true" apply_with_weight="true" only_selected="false" uniform="false"/><inkscape:path-effect effect="bspline" id="path-effect4" is_visible="true" lpeversion="1.3" weight="33.333333" steps="2" helper_size="0" apply_no_weight="true" apply_with_weight="true" only_selected="false" uniform="false"/><inkscape:path-effect effect="bspline" id="path-effect3" is_visible="true" lpeversion="1.3" weight="33.333333" steps="2" helper_size="0" apply_no_weight="true" apply_with_weight="true" only_selected="false" uniform="false"/><inkscape:path-effect effect="bspline" id="path-effect2" is_visible="true" lpeversion="1.3" weight="33.333333" steps="2" helper_size="0" apply_no_weight="true" apply_with_weight="true" only_selected="false" uniform="false"/><inkscape:path-effect effect="bspline" id="path-effect3-5" is_visible="true" lpeversion="1.3" weight="33.333333" steps="2" helper_size="0" apply_no_weight="true" apply_with_weight="true" only_selected="false" uniform="false"/><inkscape:path-effect effect="bspline" id="path-effect2-1" is_visible="true" lpeversion="1.3" weight="33.333333" steps="2" helper_size="0" apply_no_weight="true" apply_with_weight="true" only_selected="false" uniform="false"/></defs><g inkscape:label="Layer 1" inkscape:groupmode="layer" id="layer1" transform="translate(-204.78514,-151.16537)"><path style="opacity:1;fill:#d5bb72;fill-rule:evenodd;stroke:#000000;stroke-width:0.755906;paint-order:stroke fill markers" d="m 234.23903,187.16457 c -0.33159,8.4916 -0.0144,25.1288 0.64878,33.41856 0.66319,8.28976 1.67235,8.2321 9.31349,8.18885 7.64115,-0.0433 21.91368,-0.0721 29.19426,-0.69203 7.28058,-0.61994 7.56891,-1.83094 7.69866,-10.12086 0.12976,-8.28992 0.10092,-23.65811 -0.77853,-31.68838 -0.87946,-8.03026 -2.60946,-8.72226 -10.04876,-8.88085 -7.43929,-0.15858 -20.58731,0.21625 -27.65164,0.57668 -7.06433,0.36043 -8.04467,0.70643 -8.37626,9.19803 z" id="path4" transform="translate(-4.9473396e-6)"/><path style="opacity:1;fill:#d5bb72;fill-rule:evenodd;stroke:#000000;stroke-width:0.755906;paint-order:stroke fill markers" d="m 293.30051,228.9413 c 0.0876,0.78722 0.1008,1.70026 0.15194,2.98281 0.0512,1.28255 0.14023,2.93444 -0.0221,3.90256 -0.16234,0.96813 -0.57607,1.25233 -6.52181,1.20879 -5.94574,-0.0435 -17.42313,-0.41479 -29.01483,-0.57018 -11.59169,-0.15539 -23.29746,-0.0949 -29.59132,-0.15003 -6.29385,-0.0551 -7.17563,-0.22588 -7.57705,-0.78531 -0.40141,-0.55943 -0.32241,-1.50747 -0.31604,-2.61613 0.006,-1.10865 -0.0599,-2.37779 0.29055,-3.07867 0.35044,-0.70088 1.11753,-0.83339 2.86335,-0.82064 1.74582,0.0128 4.47015,0.17076 14.87631,-0.0226 10.40616,-0.1934 28.49297,-0.73819 38.27574,-1.01343 9.78276,-0.27525 11.26047,-0.28091 12.59223,-0.34423 1.33177,-0.0633 2.48986,-0.18145 3.1587,0.0102 0.66884,0.19164 0.74674,0.50968 0.83433,1.2969 z" id="path3" sodipodi:nodetypes="ccccccccccccccc" transform="translate(-4.9473396e-6)"/><path style="fill:#d5bb72;fill-rule:evenodd;stroke:#000000;stroke-width:0.755906;paint-order:stroke fill markers;opacity:1" d="m 278.54948,224.4561 c 0.96929,0.002 2.90784,0.005 3.96046,0.60673 1.05262,0.60148 1.21921,1.80087 1.22683,4.10515 0.008,2.30429 -0.14376,5.71319 -0.31269,7.86158 -0.16894,2.14839 -0.35541,3.03598 -1.21223,3.64601 -0.85681,0.61004 -2.38385,0.94242 -10.0449,1.08428 -7.66106,0.14186 -21.45522,0.0932 -29.03759,0.0819 -7.58236,-0.0113 -8.95206,0.0149 -9.6995,-0.80931 -0.74745,-0.82421 -0.87255,-2.49873 -0.99998,-5.23678 -0.12744,-2.73806 -0.25718,-6.53939 0.16311,-8.73703 0.4203,-2.19764 1.39061,-2.79136 6.87898,-2.94366 5.48838,-0.1523 15.49437,0.13684 22.59874,0.267 7.10437,0.13016 11.30693,0.10132 13.4082,0.0869 2.10127,-0.0144 2.10127,-0.0145 3.07057,-0.0128 z" id="path2" sodipodi:nodetypes="ccccccccccccc"/><path style="opacity:1;fill:#d5bb72;fill-rule:evenodd;stroke:#000000;stroke-width:0.755906;paint-order:stroke fill markers" d="m 293.30051,228.9413 c 0.0876,0.78722 0.1008,1.70026 0.15194,2.98281 0.0512,1.28255 0.14023,2.93444 -0.0221,3.90256 -0.16234,0.96813 -0.57607,1.25233 -6.52181,1.20879 -5.94574,-0.0435 -17.42313,-0.41479 -29.01483,-0.57018 -11.59169,-0.15539 -23.29746,-0.0949 -29.59132,-0.15003 -6.29385,-0.0551 -7.17563,-0.22588 -7.57705,-0.78531 -0.40141,-0.55943 -0.32241,-1.50747 -0.31604,-2.61613 0.006,-1.10865 -0.0599,-2.37779 0.29055,-3.07867 0.35044,-0.70088 1.11753,-0.83339 2.86335,-0.82064 1.74582,0.0128 4.47015,0.17076 14.87631,-0.0226 10.40616,-0.1934 28.49297,-0.73819 38.27574,-1.01343 9.78276,-0.27525 11.26047,-0.28091 12.59223,-0.34423 1.33177,-0.0633 2.48986,-0.18145 3.1587,0.0102 0.66884,0.19164 0.74674,0.50968 0.83433,1.2969 z" id="path3-1" sodipodi:nodetypes="ccccccccccccccc" transform="translate(-1.2213154,-57.007382)"/><path style="fill:#d5bb72;fill-rule:evenodd;stroke:#000000;stroke-width:0.755906;paint-order:stroke fill markers;opacity:1" d="m 278.54948,224.4561 c 0.96929,0.002 2.90784,0.005 3.96046,0.60673 1.05262,0.60148 1.21921,1.80087 1.22683,4.10515 0.008,2.30429 -0.14376,5.71319 -0.31269,7.86158 -0.16894,2.14839 -0.35541,3.03598 -1.21223,3.64601 -0.85681,0.61004 -2.38385,0.94242 -10.0449,1.08428 -7.66106,0.14186 -21.45522,0.0932 -29.03759,0.0819 -7.58236,-0.0113 -8.95206,0.0149 -9.6995,-0.80931 -0.74745,-0.82421 -0.87255,-2.49873 -0.99998,-5.23678 -0.12744,-2.73806 -0.25718,-6.53939 0.16311,-8.73703 0.4203,-2.19764 1.39061,-2.79136 6.87898,-2.94366 5.48838,-0.1523 15.49437,0.13684 22.59874,0.267 7.10437,0.13016 11.30693,0.10132 13.4082,0.0869 2.10127,-0.0144 2.10127,-0.0145 3.07057,-0.0128 z" id="path2-5" sodipodi:nodetypes="ccccccccccccc" transform="translate(-1.2213105,-57.007382)"/></g></svg>